<?xml version="1.0" standalone="no"?>
<!DOCTYPE svg PUBLIC "-//W3C//DTD SVG 1.1//EN" "http://www.w3.org/Graphics/SVG/1.1/DTD/svg11.dtd">
<svg xmlns="http://www.w3.org/2000/svg">
<metadata>Copyright (C) 2017 by original authors @ fontello.com</metadata>
<defs>
<font id="iconmind-line" horiz-adv-x="1000" >
<font-face font-family="iconmind-line" font-weight="400" font-stretch="normal" units-per-em="1000" ascent="850" descent="-150" />
<missing-glyph horiz-adv-x="1000" />
<glyph glyph-name="add-space-after-paragraph" unicode="&#xe800;" d="M43 58c-4 0-8 2-12 4-10 6-12 19-6 29l91 134-91 134c-6 10-4 23 6 29 9 6 22 4 29-5l99-146c5-7 5-17 0-24l-99-146c-4-5-11-9-17-9z m915 563h-709c-11 0-21 9-21 21s10 21 21 21h709c11 0 20-10 20-21s-9-21-20-21z m-417-167h-292c-11 0-21 10-21 21s10 21 21 21h292c11 0 21-9 21-21s-10-21-21-21z m250-125h-542c-11 0-21 10-21 21 0 12 10 21 21 21h542c11 0 21-9 21-21 0-11-10-21-21-21z m-500-125h-42c-11 0-21 10-21 21s10 21 21 21h42c11 0 21-9 21-21s-10-21-21-21z m167 0h-42c-12 0-21 10-21 21s9 21 21 21h42c11 0 20-9 20-21s-9-21-20-21z m166 0h-41c-12 0-21 10-21 21s9 21 21 21h41c12 0 21-9 21-21s-9-21-21-21z m167 0h-42c-11 0-21 10-21 21s10 21 21 21h42c11 0 21-9 21-21s-10-21-21-21z m167 0h-42c-11 0-21 10-21 21s10 21 21 21h42c11 0 20-9 20-21s-9-21-20-21z m-667-83h-42c-11 0-21 9-21 21s10 21 21 21h42c11 0 21-10 21-21s-10-21-21-21z m167 0h-42c-12 0-21 9-21 21s9 21 21 21h42c11 0 20-10 20-21s-9-21-20-21z m166 0h-41c-12 0-21 9-21 21s9 21 21 21h41c12 0 21-10 21-21s-9-21-21-21z m167 0h-42c-11 0-21 9-21 21s10 21 21 21h42c11 0 21-10 21-21s-10-21-21-21z m167 0h-42c-11 0-21 9-21 21s10 21 21 21h42c11 0 20-10 20-21s-9-21-20-21z" horiz-adv-x="1000" />

<glyph glyph-name="add-space-before-paragraph" unicode="&#xe801;" d="M708 79h-459c-11 0-21 10-21 21s10 21 21 21h459c11 0 20-10 20-21s-9-21-20-21z m83 250h-542c-11 0-21 10-21 21 0 12 10 21 21 21h542c11 0 21-9 21-21 0-11-10-21-21-21z m-292-125h-250c-11 0-21 10-21 21s10 21 21 21h250c12 0 21-10 21-21s-9-21-21-21z m-456 104c-4 0-8 2-12 4-10 6-12 19-6 29l91 134-91 134c-6 10-4 23 6 29 9 7 22 4 29-5l99-146c5-7 5-17 0-24l-99-146c-4-5-11-9-17-9z m248 230h-42c-11 0-21 9-21 20s10 21 21 21h42c11 0 21-9 21-21s-10-20-21-20z m167 0h-42c-12 0-21 9-21 20s9 21 21 21h42c11 0 20-9 20-21s-9-20-20-20z m166 0h-41c-12 0-21 9-21 20s9 21 21 21h41c12 0 21-9 21-21s-9-20-21-20z m167 0h-42c-11 0-21 9-21 20s10 21 21 21h42c11 0 21-9 21-21s-10-20-21-20z m167 0h-42c-11 0-21 9-21 20s10 21 21 21h42c11 0 20-9 20-21s-9-20-20-20z m-667-84h-42c-11 0-21 10-21 21s10 21 21 21h42c11 0 21-9 21-21s-10-21-21-21z m167 0h-42c-12 0-21 10-21 21s9 21 21 21h42c11 0 20-9 20-21s-9-21-20-21z m166 0h-41c-12 0-21 10-21 21s9 21 21 21h41c12 0 21-9 21-21s-9-21-21-21z m167 0h-42c-11 0-21 10-21 21s10 21 21 21h42c11 0 21-9 21-21s-10-21-21-21z m167 0h-42c-11 0-21 10-21 21s10 21 21 21h42c11 0 20-9 20-21s-9-21-20-21z" horiz-adv-x="1000" />

<glyph glyph-name="align-center" unicode="&#xe802;" d="M958 579h-916c-12 0-21 10-21 21s9 21 21 21h916c12 0 21-9 21-21s-9-21-21-21z m-125-125h-708c-11 0-21 10-21 21s10 21 21 21h708c12 0 21-9 21-21s-9-21-21-21z m-166-125h-334c-11 0-20 10-20 21s9 21 20 21h334c11 0 21-9 21-21s-10-21-21-21z m125-125h-625c-12 0-21 10-21 21s9 21 21 21h625c11 0 21-9 21-21s-10-21-21-21z m166-125h-916c-12 0-21 10-21 21s9 21 21 21h916c12 0 21-9 21-21s-9-21-21-21z" horiz-adv-x="1000" />

<glyph glyph-name="align-justify-all" unicode="&#xe803;" d="M958 579h-916c-12 0-21 10-21 21s9 21 21 21h916c12 0 21-9 21-21s-9-21-21-21z m0-125h-916c-12 0-21 10-21 21s9 21 21 21h916c12 0 21-9 21-21s-9-21-21-21z m0-125h-916c-12 0-21 10-21 21s9 21 21 21h916c12 0 21-9 21-21s-9-21-21-21z m0-125h-916c-12 0-21 10-21 21s9 21 21 21h916c12 0 21-9 21-21s-9-21-21-21z m0-125h-916c-12 0-21 10-21 21s9 21 21 21h916c12 0 21-9 21-21s-9-21-21-21z" horiz-adv-x="1000" />

<glyph glyph-name="align-justify-center" unicode="&#xe804;" d="M958 579h-916c-12 0-21 10-21 21s9 21 21 21h916c12 0 21-9 21-21s-9-21-21-21z m0-125h-916c-12 0-21 10-21 21s9 21 21 21h916c12 0 21-9 21-21s-9-21-21-21z m0-125h-916c-12 0-21 10-21 21s9 21 21 21h916c12 0 21-9 21-21s-9-21-21-21z m0-125h-916c-12 0-21 10-21 21s9 21 21 21h916c12 0 21-9 21-21s-9-21-21-21z m-208-125h-500c-11 0-21 10-21 21s10 21 21 21h500c12 0 21-9 21-21s-9-21-21-21z" horiz-adv-x="1000" />

<glyph glyph-name="align-justify-left" unicode="&#xe805;" d="M958 579h-916c-12 0-21 10-21 21s9 21 21 21h916c12 0 21-9 21-21s-9-21-21-21z m0-125h-916c-12 0-21 10-21 21s9 21 21 21h916c12 0 21-9 21-21s-9-21-21-21z m0-125h-916c-12 0-21 10-21 21s9 21 21 21h916c12 0 21-9 21-21s-9-21-21-21z m0-125h-916c-12 0-21 10-21 21s9 21 21 21h916c12 0 21-9 21-21s-9-21-21-21z m0-125h-500c-11 0-20 10-20 21s9 21 20 21h500c12 0 21-9 21-21s-9-21-21-21z" horiz-adv-x="1000" />

<glyph glyph-name="align-justify-right" unicode="&#xe806;" d="M958 579h-916c-12 0-21 10-21 21s9 21 21 21h916c12 0 21-9 21-21s-9-21-21-21z m0-125h-916c-12 0-21 10-21 21s9 21 21 21h916c12 0 21-9 21-21s-9-21-21-21z m0-125h-916c-12 0-21 10-21 21s9 21 21 21h916c12 0 21-9 21-21s-9-21-21-21z m0-125h-916c-12 0-21 10-21 21s9 21 21 21h916c12 0 21-9 21-21s-9-21-21-21z m-416-125h-500c-12 0-21 10-21 21s9 21 21 21h500c11 0 21-9 21-21s-10-21-21-21z" horiz-adv-x="1000" />

<glyph glyph-name="align-left" unicode="&#xe807;" d="M958 579h-916c-12 0-21 10-21 21s9 21 21 21h916c12 0 21-9 21-21s-9-21-21-21z m0-125h-708c-11 0-21 10-21 21s10 21 21 21h708c12 0 21-9 21-21s-9-21-21-21z m0-125h-333c-11 0-21 10-21 21s10 21 21 21h333c12 0 21-9 21-21s-9-21-21-21z m0-125h-625c-11 0-20 10-20 21s9 21 20 21h625c12 0 21-9 21-21s-9-21-21-21z m0-125h-916c-12 0-21 10-21 21s9 21 21 21h916c12 0 21-9 21-21s-9-21-21-21z" horiz-adv-x="1000" />

<glyph glyph-name="align-right" unicode="&#xe808;" d="M979 579h-958c-12 0-21 10-21 21s9 21 21 21h958c12 0 21-9 21-21s-9-21-21-21z m-208-125h-750c-12 0-21 10-21 21s9 21 21 21h750c11 0 21-9 21-21s-10-21-21-21z m-375-125h-375c-12 0-21 10-21 21s9 21 21 21h375c11 0 21-9 21-21s-10-21-21-21z m292-125h-667c-12 0-21 10-21 21s9 21 21 21h667c11 0 20-9 20-21s-9-21-20-21z m-125-125h-542c-12 0-21 10-21 21s9 21 21 21h542c11 0 20-9 20-21s-9-21-20-21z" horiz-adv-x="1000" />

<glyph glyph-name="decrase-inedit" unicode="&#xe809;" d="M825 579h-792c-11 0-21 10-21 21s10 21 21 21h792c11 0 21-9 21-21s-10-21-21-21z m0-125h-792c-11 0-21 10-21 21s10 21 21 21h792c11 0 21-9 21-21s-10-21-21-21z m-250-125h-542c-11 0-21 10-21 21s10 21 21 21h542c11 0 21-9 21-21s-10-21-21-21z m0-125h-542c-11 0-21 10-21 21s10 21 21 21h542c11 0 21-9 21-21s-10-21-21-21z m250-125h-792c-11 0-21 10-21 21s10 21 21 21h792c11 0 21-9 21-21s-10-21-21-21z m142 21c-7 0-14 4-18 10l-99 167c-4 6-4 15 0 21l99 167c6 10 19 13 29 7 10-6 13-18 7-28l-93-156 93-157c6-9 3-22-7-28-4-2-7-3-11-3z" horiz-adv-x="1000" />

<glyph glyph-name="increase-inedit" unicode="&#xe80a;" d="M783 579h-750c-11 0-21 10-21 21s10 21 21 21h750c11 0 21-9 21-21s-10-21-21-21z m0-125h-750c-11 0-21 10-21 21s10 21 21 21h750c11 0 21-9 21-21s-10-21-21-21z m-250-125h-500c-11 0-21 10-21 21s10 21 21 21h500c11 0 21-9 21-21s-10-21-21-21z m0-125h-500c-11 0-21 10-21 21s10 21 21 21h500c11 0 21-9 21-21s-10-21-21-21z m250-125h-750c-11 0-21 10-21 21s10 21 21 21h750c11 0 21-9 21-21s-10-21-21-21z m85 21c-4 0-7 1-11 3-9 6-13 19-7 29l93 156-93 156c-6 9-2 22 7 28 10 6 23 3 29-7l99-167c4-6 4-15 0-21l-99-167c-4-6-11-10-18-10z" horiz-adv-x="1000" />

<glyph glyph-name="indent-first-line" unicode="&#xe80b;" d="M958 454h-209c-11 0-21 10-21 21s10 21 21 21h209c11 0 20-9 20-21s-9-21-20-21z m-209-125h-500c-11 0-21 10-21 21 0 12 10 21 21 21h500c12 0 21-9 21-21 0-11-9-21-21-21z m-291-125h-209c-11 0-21 10-21 21s10 21 21 21h209c11 0 20-10 20-21s-9-21-20-21z m208-125h-417c-11 0-21 10-21 21s10 21 21 21h417c11 0 21-10 21-21s-10-21-21-21z m-375 375h-42c-11 0-21 10-21 21s10 21 21 21h42c11 0 21-9 21-21s-10-21-21-21z m125 0h-42c-11 0-21 10-21 21s10 21 21 21h42c11 0 21-9 21-21s-10-21-21-21z m125 0h-42c-11 0-21 10-21 21s10 21 21 21h42c11 0 21-9 21-21s-10-21-21-21z m125 0h-42c-11 0-21 10-21 21s10 21 21 21h42c11 0 21-9 21-21s-10-21-21-21z m-623-146c-4 0-8 2-12 4-10 6-12 19-6 29l91 134-91 134c-6 10-4 23 6 29 9 7 22 4 29-5l99-146c5-7 5-17 0-24l-99-146c-4-5-11-9-17-9z" horiz-adv-x="1000" />

<glyph glyph-name="indent-left-margin" unicode="&#xe80c;" d="M658 579h-625c-11 0-21 10-21 21s10 21 21 21h625c11 0 21-9 21-21s-10-21-21-21z m-208-125h-417c-11 0-21 10-21 21s10 21 21 21h417c11 0 21-9 21-21s-10-21-21-21z m-292-125h-125c-11 0-21 10-21 21s10 21 21 21h125c11 0 21-9 21-21s-10-21-21-21z m208-125h-333c-11 0-21 10-21 21s10 21 21 21h333c12 0 21-9 21-21s-9-21-21-21z m292-125h-625c-11 0-21 10-21 21s10 21 21 21h625c11 0 21-9 21-21s-10-21-21-21z m92-21c-11 0-21 10-21 21v542c0 11 10 21 21 21s21-10 21-21v-542c0-11-9-21-21-21z m217 84c-7 0-14 3-18 10l-99 167c-4 6-4 14 0 21l99 167c6 9 19 13 29 7 10-6 13-19 7-29l-93-156 93-156c6-10 3-22-7-28-4-2-7-3-11-3z" horiz-adv-x="1000" />

<glyph glyph-name="indent-right-margin" unicode="&#xe80d;" d="M978 579h-666c-12 0-21 10-21 21s9 21 21 21h666c12 0 21-9 21-21s-9-21-21-21z m-208-125h-458c-12 0-21 10-21 21s9 21 21 21h458c11 0 21-9 21-21s-10-21-21-21z m-292-125h-166c-12 0-21 10-21 21s9 21 21 21h166c12 0 21-9 21-21s-9-21-21-21z m209-125h-375c-12 0-21 10-21 21s9 21 21 21h375c11 0 21-9 21-21s-10-21-21-21z m291-125h-666c-12 0-21 10-21 21s9 21 21 21h666c12 0 21-9 21-21s-9-21-21-21z m-770-21c-11 0-20 10-20 21v542c0 11 9 21 20 21s21-10 21-21v-542c0-11-9-21-21-21z m-167 84c-4 0-7 1-11 3-10 6-13 18-7 28l93 156-93 156c-6 10-3 23 7 29 10 6 23 2 29-7l99-167c4-7 4-15 0-21l-99-167c-4-7-11-10-18-10z" horiz-adv-x="1000" />

<glyph glyph-name="line-spacing" unicode="&#xe80e;" d="M541 621h-500c-12 0-21 9-21 21s9 21 21 21h500c11 0 21-10 21-21s-10-21-21-21z m0-125h-500c-12 0-21 9-21 21s9 21 21 21h500c11 0 21-10 21-21s-10-21-21-21z m-125-125h-375c-12 0-21 9-21 21s9 21 21 21h375c11 0 21-10 21-21s-10-21-21-21z m0-125h-375c-12 0-21 9-21 21s9 21 21 21h375c11 0 21-10 21-21s-10-21-21-21z m500 125h-250c-12 0-21 9-21 21s9 21 21 21h250c11 0 21-10 21-21s-10-21-21-21z m-375-250h-500c-12 0-21 9-21 21s9 21 21 21h500c11 0 21-10 21-21s-10-21-21-21z m375 125h-250c-12 0-21 9-21 21s9 21 21 21h250c11 0 21-10 21-21s-10-21-21-21z m43-167c-3 0-6 1-9 2l-158 77-159-77c-10-5-23 0-28 10-5 10 0 23 10 28l168 81c5 3 12 3 18 0l167-81c11-5 15-18 10-28-4-7-11-12-19-12z m-167 375c-3 0-6 1-9 2l-168 82c-10 5-15 17-10 28 5 10 18 14 28 9l159-77 158 77c10 5 23 1 28-9 5-11 1-23-10-28l-167-82c-3-1-6-2-9-2z" horiz-adv-x="1000" />

<glyph glyph-name="aligator" unicode="&#xe80f;" d="M122 398c-35 0-63 28-63 62s28 63 63 63 62-28 62-63-28-62-62-62z m0 83c-12 0-21-9-21-21 0-11 9-21 21-21s20 10 20 21-9 21-20 21z m774-402h-875c-12 0-21 10-21 21v359c0 45 0 162 125 162 72 0 119-47 126-125h573c9 24 32 42 59 42 27 0 50-18 59-42h37c12 0 21-9 21-21 0-81-65-146-145-146h-426l-49-83h392c80 0 145-65 145-145 0-12-10-22-21-22z m-854 42h831c-9 47-51 83-101 83h-428c-8 0-15 4-18 11-4 6-4 14 0 21l73 125c3 6 10 10 18 10h438c50 0 92 36 102 83h-32c-12 0-21 10-21 21s-10 21-21 21c-12 0-21-9-21-21s-9-21-21-21h-610c-11 0-21 10-21 21 0 67-30 104-85 104-77 0-83-59-83-120l0-338 0 0z m812 146c-11 0-21 9-21 21v41c0 12 10 21 21 21s21-9 21-21v-41c0-12-9-21-21-21z m-83-42c-12 0-21 9-21 21v42c0 11 9 20 21 20s21-9 21-20v-42c0-12-10-21-21-21z" horiz-adv-x="1000" />

<glyph glyph-name="bat" unicode="&#xe810;" d="M401 496c-2 0-5 0-7 1-11 4-16 17-12 27 8 21 33 91 28 145-1 10 4 19 13 22s18 1 24-7c53-70 74-119 74-167 0-12-9-21-21-21s-21 9-21 21c0 27-9 55-31 91-6-41-20-80-27-99-4-8-12-13-20-13z m198 0c-8 0-16 5-19 13-8 19-21 58-28 99-22-36-31-64-31-91 0-12-9-21-21-21s-21 9-21 21c0 48 22 97 74 167 6 8 16 10 24 7s15-12 14-22c-6-54 20-124 28-145 4-10-1-23-12-27-3-1-5-1-8-1z m-99-21c-261 0-466 119-466 271 0 11 9 21 21 21 11 0 20-10 20-21 0-127 191-229 425-229s425 102 425 229c0 11 9 21 21 21 11 0 20-10 20-21 0-152-204-271-466-271z m0-542c-11 0-21 10-21 21 0 65-19 108-55 123-27 10-57 2-71-12-7-7-17-9-26-4-8 5-12 15-9 25 20 61-17 121-64 149-15 9-66 35-104-4-4-4-10-6-17-6-6 1-12 4-15 10-82 127-168 258-83 517 3 11 15 17 26 14 11-4 17-15 13-26-74-228-9-346 66-463 38 24 88 23 135-6 50-30 91-88 90-153 23 7 49 8 75-3 30-12 81-49 81-161 0-11-9-21-21-21z m0 0c-11 0-21 10-21 21 0 111 51 149 81 161 26 10 52 10 75 3-1 65 40 123 90 153 47 29 97 30 135 6 75 117 140 234 66 462-4 11 2 23 13 27 11 3 23-3 26-14 85-259 0-391-83-517-3-6-9-9-15-10-7-1-13 2-17 6-38 39-89 13-104 4-47-28-84-89-64-150 3-9-1-19-9-24-8-5-19-3-26 3-14 15-44 23-71 12-36-14-55-58-55-122 0-11-9-21-21-21z" horiz-adv-x="1000" />

<glyph glyph-name="bear" unicode="&#xe811;" d="M500-49c-234 0-424 190-424 423 0 33 4 65 12 95-52 15-88 58-88 106 0 62 58 113 129 113 31 0 61-10 85-29 75 58 176 90 286 90 110 0 211-32 287-90 23 19 53 29 85 29 70 0 128-51 128-113 0-48-36-91-88-106 8-30 12-62 12-95 0-233-190-423-424-423z m-371 695c-48 0-87-32-87-71 0-34 32-64 74-69 7-1 12-5 16-10 3-5 4-11 2-17-11-33-16-69-16-105 0-210 171-381 382-381 211 0 383 171 383 381 0 36-6 72-17 105-1 6-1 12 3 17 3 5 9 9 15 10 42 5 75 35 75 69 0 40-39 71-87 71-27 0-52-10-69-28-8-8-20-9-29-2-69 59-166 91-274 91s-205-32-274-91c-8-7-21-6-28 2-17 18-42 28-69 28z m350-603c-11 0-21 9-21 21v92l-154 165c-6 6-8 14-4 22 3 8 10 13 19 13h325c9 0 16-5 20-13 3-8 1-17-5-23l-159-155v-101c0-12-9-21-21-21z m-112 271l108-115 118 115h-226z m-54 83c-35 0-63 28-63 63s28 62 63 62 62-28 62-62-28-63-62-63z m0 84c-12 0-21-10-21-21 0-12 9-21 21-21s20 9 20 21c0 11-9 21-20 21z m333-84c-35 0-63 28-63 63s28 62 63 62 62-28 62-62-28-63-62-63z m0 84c-12 0-21-10-21-21 0-12 9-21 21-21s21 9 21 21c0 11-10 21-21 21z" horiz-adv-x="1000" />

<glyph glyph-name="bee" unicode="&#xe812;" d="M501-150c-91 0-170 80-207 210l40 11c31-109 97-180 167-180 69 0 134 69 165 174l40-12c-38-125-116-203-205-203z m-224 180c-22 0-41 6-61 17-56 31-79 90-66 168 25 150 197 367 345 391 5 1 11-1 16-4 4-4 7-9 8-14 14-143-44-400-138-504-32-36-67-54-104-54z m202 529c-117-37-265-213-288-351-10-61 5-102 45-124 14-8 28-12 41-12l0 0c24 0 49 13 73 40 80 89 135 310 129 447z m244-529c-37 0-72 18-104 54-94 105-152 361-138 504 1 5 4 11 9 14 4 3 10 5 16 4 147-24 319-241 344-391 14-78-10-137-66-168-20-11-40-17-61-17z m-202 529c-5-137 49-358 129-447 37-41 74-50 114-28 40 22 56 63 45 124-23 138-170 314-288 351z m95-459h-225c-12 0-21 9-21 21s9 21 21 21h224c12 0 21-10 21-21s-9-21-20-21z m41-83h-333c-12 0-21 9-21 21s9 20 21 20h333c12 0 21-9 21-20s-9-21-21-21z m-24-84h-267c-12 0-21 10-21 21s9 21 21 21h267c11 0 21-9 21-21s-10-21-21-21z m3 590c-11 0-20 10-20 21 0 76-21 167-117 167-101 0-116-105-116-167 0-11-10-21-21-21-11 0-21 10-21 21 0 131 59 208 158 208 101 0 158-75 158-208 0-11-9-21-21-21z m-228 151c-11 0-21 9-21 21 0 77-38 113-120 113-12 0-21 10-21 21s9 21 21 21c104 0 162-55 162-155 0-12-9-21-21-21z m187 0c-11 0-20 9-20 21 0 71 26 155 153 155 12 0 21-9 21-21s-9-21-21-21c-77 0-112-35-112-113 0-12-9-21-21-21z" horiz-adv-x="1000" />

<glyph glyph-name="bird" unicode="&#xe813;" d="M457-5l0 0c-131 0-280 35-420 98-10 5-15 16-12 26 4 10 14 16 25 14 18-4 36-6 54-6l0 0c154 0 231 166 313 342 85 183 174 372 361 372 56 0 118-17 186-53 8-4 13-12 12-20-1-9-8-16-16-18-64-17-72-101-80-237-7-125-15-267-92-382-59-87-177-136-331-136z m-300 96c103-35 207-54 300-54 140 0 245 42 297 118 71 104 78 241 85 361 6 110 12 209 68 253-47 20-90 31-129 31-161 0-239-170-323-349-75-161-152-328-298-360z m410-86c-6 0-13 3-17 8-60 80-76 191-45 297 27 88 85 161 159 200 61 31 128 38 189 18 5-2 9-4 14-5 11-5 16-17 11-27-4-11-16-16-27-12-3 2-7 3-11 4-50 17-106 11-156-15-65-34-115-98-139-175-27-92-13-191 39-259 7-10 5-23-5-30-3-3-8-4-12-4z m-173-146c-11 0-21 9-21 20v126c0 11 10 20 21 20 12 0 21-9 21-20v-126c0-11-9-20-21-20z m84 0c-12 0-21 9-21 20v126c0 11 9 20 21 20 11 0 20-9 20-20v-126c0-11-9-20-20-20z m289 790c-35 0-63 29-63 64 0 36 28 64 63 64 34 0 62-28 62-64 0-35-28-64-62-64z m0 87c-12 0-21-11-21-23 0-12 9-22 21-22s20 10 20 22c0 13-9 23-20 23z" horiz-adv-x="1000" />

<glyph glyph-name="bug" unicode="&#xe814;" d="M191-95c-9 0-17 5-20 14-54 165-38 205 21 352l7 19c4 10 16 15 27 11 11-4 16-16 12-27l-8-19c-57-142-68-172-19-323 3-11-3-22-14-26-2-1-4-1-6-1z m-128 226c-12 0-21 10-21 21v36c0 139 49 216 158 248 11 3 23-3 26-14 3-11-3-23-14-26-91-27-129-87-129-208v-36c0-11-9-21-20-21z m150 360c-5 0-11 2-15 7l-14 15c-75 85-101 114-101 243v21c0 12 10 21 21 21s21-9 21-21v-21c0-113 16-131 90-215l14-16c7-8 7-21-2-29-4-4-9-5-14-5z m600-586c-2 0-4 0-6 1-11 3-17 15-13 26 49 151 37 181-20 323l-8 19c-4 11 1 23 12 27 11 4 23-1 27-12l8-19c58-146 74-186 20-351-3-9-11-14-20-14z m125 226c-12 0-21 10-21 21v36c0 120-38 180-129 207-11 3-17 15-14 26 3 11 15 17 26 14 109-32 158-108 158-247v-36c0-11-9-21-20-21z m-165 351c-5 0-10 1-14 5-8 8-9 21-2 29l24 27c68 76 94 105 94 213v21c0 12 9 21 21 21s21-9 21-21v-21c0-124-35-163-105-241l-23-26c-4-5-10-7-16-7z m-264-622c-2 0-5 0-7 1 0-1-2-1-5-1-129 0-259 197-295 447-18 120-2 206 47 263 51 58 135 85 255 82 5 0 11 0 17 0 111 0 188-27 236-82 50-57 65-143 47-263-36-250-165-447-295-447z m-7 42l7 0c106 0 222 188 254 411 16 107 4 182-38 230-41 48-114 70-221 67-7 1-13 1-19 1-98 0-165-22-204-68-41-48-54-123-37-229 32-224 148-412 253-412l5 0z m166 705h-41c0 68-56 123-124 123-68 0-123-55-123-123h-42c0 91 74 165 165 165 91 0 165-74 165-165z m-66 84c-8 0-16 5-19 14-4 11 1 22 12 26 54 20 113 55 113 74v14c0 11 10 21 21 21s21-10 21-21v-14c0-58-108-101-141-113-2-1-4-1-7-1z m-200-2c-2 0-4 1-7 1-34 13-145 57-145 115v14c0 11 9 21 21 21s21-10 21-21v-14c0-19 62-55 117-75 11-4 17-16 13-27-3-9-11-14-20-14z" horiz-adv-x="1000" />

<glyph glyph-name="butterfly" unicode="&#xe815;" d="M688-22c-51 0-122 26-188 145-65-119-137-145-188-145-79 0-144 63-171 121-20 45-23 87-8 126 11 30 32 57 63 81-171 14-171 183-171 240 0 53 0 176 101 176 20 0 41-4 67-13 106-38 247-171 307-284 61 113 201 247 307 284 26 9 48 13 67 13 101 0 101-123 101-176 0-73-11-125-35-164-28-46-74-71-136-76 31-24 52-51 63-81 15-39 12-81-8-126-27-58-92-121-171-121z m-188 212c8 0 16-5 19-13 48-103 107-157 169-157 58 0 111 48 133 96 16 34 18 66 8 94-15 39-55 74-117 102-9 4-14 14-11 24 3 11 12 17 23 15 91-14 150 3 181 53 20 32 29 77 29 142 0 118-29 135-60 135-14 0-32-4-53-11-108-39-263-194-301-303-6-17-34-17-39 0-38 109-193 264-301 303-21 7-39 11-54 11-29 0-60-11-60-134 0-163 64-219 211-196 10 2 20-4 23-14 3-10-2-21-12-25-61-28-102-63-116-102-11-28-8-59 7-94 22-48 75-96 133-96 63 0 121 54 169 157 4 8 11 13 19 13z" horiz-adv-x="1000" />

<glyph glyph-name="cat" unicode="&#xe817;" d="M503-144h-7c-291 0-495 148-495 360 0 195 20 420 169 620 6 9 19 11 28 4l33-23c83-58 169-118 183-197 65 6 103 7 171-1 14 78 98 136 179 192 13 9 27 18 39 27 9 7 22 5 29-4 147-197 167-413 167-617 0-213-204-361-496-361z m-312 938c-130-184-149-386-149-577 0-188 187-319 454-319h7c268 0 455 131 455 319 0 191-18 393-147 575-8-5-15-10-23-15-80-56-163-113-163-180 0-6-3-12-7-16-5-4-11-6-17-5-85 10-119 9-203 0-6 0-12 2-16 6-5 4-7 9-7 15 0 69-86 129-168 186l-16 11z m128-504c-35 0-64 29-64 64 0 35 29 63 64 63 36 0 65-28 65-63s-29-64-65-64z m0 86c-12 0-22-10-22-22 0-12 10-22 22-22 13 0 23 10 23 22s-10 22-23 22z m357-86c-36 0-65 29-65 64 0 35 29 63 65 63 35 0 64-28 64-63 0-35-29-64-64-64z m0 86c-13 0-23-10-23-22 0-12 10-22 23-22 12 0 23 10 23 22 0 12-11 22-23 22z m-194-254c-6 0-12 2-16 7l-97 109c-5 6-6 15-3 23 3 7 11 12 19 12h188c8 0 16-5 19-12 4-8 2-16-3-22l-91-110c-4-4-10-7-16-7 0 0 0 0 0 0z m-51 109l50-57 48 57h-98z m48-229c-12 0-21 9-21 21v125c0 11 9 21 21 21 11 0 21-10 21-21v-125c0-12-10-21-21-21z m109 163c-9 0-18 7-20 16-2 12 5 23 16 25l220 41c12 2 22-5 25-16 2-12-6-22-17-25l-220-41c-1 0-2 0-4 0z m0-86c-9 0-18 7-20 17-2 11 5 22 17 24l219 42c12 2 23-5 25-17 2-11-6-22-17-24l-220-41c-1-1-2-1-4-1z m-217 86c-1 0-2 0-4 0l-219 41c-12 3-19 13-17 25s13 18 24 16l220-41c11-2 19-13 17-25-2-9-11-16-21-16z m0-86c-1 0-2 0-4 0l-219 42c-12 2-19 13-17 24 2 12 13 19 24 17l220-42c11-2 19-13 17-24-2-10-11-17-21-17z" horiz-adv-x="1000" />

<glyph glyph-name="cheetah" unicode="&#xe818;" d="M500-150c-231 0-365 116-410 355-10 52-19 205-5 267-38 40-61 101-61 167 0 117 70 211 157 211 73 0 135-67 152-161 102 29 232 29 334 0 17 94 79 161 152 161 87 0 157-94 157-211 0-66-23-127-61-167 15-62 5-215-5-267-45-239-179-355-410-355z m-319 958c-64 0-115-75-115-169 0-59 21-113 57-145 6-6 9-15 5-23-14-35-9-196 3-258 41-219 158-321 369-321 211 0 328 102 369 321 12 62 17 223 3 258-4 8-1 18 5 23 36 32 57 86 57 145 0 94-51 169-115 169-57 0-106-63-114-148 0-6-4-12-9-15-5-4-12-5-18-3-53 18-113 27-178 27-65 0-125-9-178-26-6-3-13-2-18 2-6 3-9 9-10 15-7 85-56 148-113 148z m322-743c-7 0-14 4-18 10l-98 157c-4 6-4 14-1 21 4 7 11 11 19 11h190c8 0 14-4 18-11 4-6 4-14 0-21l-92-157c-4-6-11-10-18-10 0 0 0 0 0 0z m-61 157l60-96 57 96h-117z m-40-247c-16 0-30 2-37 3-33 5-68 31-90 67-27 45-32 97-14 149 43 125 72 281 11 310-11 5-15 17-10 28 5 10 18 14 28 10 105-51 42-270 11-362-19-53-2-94 10-113 17-29 43-45 60-48 42-6 70-1 87 14 15 14 22 37 21 71 0 11 9 21 20 21 12 1 21-8 22-20 2-46-10-80-35-103-25-22-57-27-84-27z m-104 415c-30 0-58 21-64 52-8 36 15 71 51 79 11 2 22-5 25-16 2-11-5-22-17-25-13-3-21-16-18-29 2-13 15-22 29-19 11 3 22-4 24-16 3-11-4-22-16-25-4-1-9-1-14-1z m300-415c-26 0-59 5-84 27-24 23-36 57-35 103 1 12 11 21 22 20 12 0 21-10 20-21-1-33 6-57 21-71 17-15 46-20 88-14 16 3 42 19 60 48 12 19 29 60 10 114-32 92-95 311 11 361 10 5 23 0 28-10 4-11 0-23-10-28-62-29-33-185 10-310 18-52 13-104-13-148-22-37-58-63-90-68-8-1-22-3-38-3z m104 415c-5 0-10 0-14 1-11 3-18 14-16 25s13 19 25 16c6-1 13 0 18 4 6 3 9 9 11 15 2 13-6 26-19 29-11 3-19 14-16 25 2 11 13 18 25 16 35-8 58-43 51-79-4-17-14-32-29-41-11-7-24-11-36-11z" horiz-adv-x="1000" />

<glyph glyph-name="chicken" unicode="&#xe819;" d="M523 1c-142 0-251 53-282 136-97 72-92 156-82 306 6 102-9 140-17 163-1 2-2 3-2 5-45 20-75 64-75 114 0 69 56 125 125 125 69 0 125-56 125-125 0-11 4-29 5-33 14-50 68-220 163-308 56 6 102 1 149-12 15 11 30 22 45 32 80 59 149 110 215 110 19 0 37-5 53-13 61-33 60-76 56-92-6-34-37-61-79-74 12-20 16-39 10-57-10-35-49-59-119-74 1-6 1-12 1-17 0-108-122-186-291-186z m-333 807c-46 0-83-37-83-83 0-35 22-67 56-78 7-3 12-8 14-15 1-3 2-7 4-11 10-26 26-70 19-180-10-163-9-217 70-274 4-2 7-6 8-10 22-68 120-114 245-114 142 0 250 62 250 144 0 9-2 18-5 27-1 6 0 12 3 17 3 5 8 8 14 9l12 3c78 16 93 38 95 46 5 16-14 37-22 45-6 5-8 14-6 22 3 7 10 13 18 13 46 5 74 28 78 48 5 22-20 39-35 47-54 29-135-29-224-93-17-13-35-26-53-39-5-3-12-5-18-3-48 15-102 19-151 13-6-1-12 1-16 5-109 94-168 280-183 334-2 5-7 28-7 44 0 46-37 83-83 83z m-172-230c-6 0-12 3-16 8-5 6-6 15-3 22l70 145c5 10 17 14 27 9 11-5 15-17 10-27l-51-107 97 19c12 3 23-5 25-16 2-11-5-22-16-25l-138-28c-2 0-3 0-5 0z m507-707c-12 0-21 9-21 21v125c0 11 10 21 21 21 11 0 21-10 21-21v-125c0-12-10-21-21-21z m21-21h-42c-11 0-21 9-21 21 0 11 10 21 21 21h42c11 0 21-10 21-21 0-12-10-21-21-21z m-106 234c-12 0-21 10-21 21 0 12 9 21 21 21 142 0 249 62 249 144 0 12 10 21 21 21 12 0 21-9 21-21 0-107-122-186-291-186z" horiz-adv-x="1000" />

<glyph glyph-name="cow" unicode="&#xe81a;" d="M500-116l0 0c-48 0-96 10-162 32-30 17-45 49-45 74v108c0 29 19 72 53 72h312c31 0 52-34 52-65v-110c0-26-16-62-42-76-71-25-121-35-168-35z m-154 244c-4-2-11-17-11-30v-108c0-13 9-30 20-35 58-20 102-29 145-29l0 0c43 0 87 9 152 31 6 4 16 23 16 37v111c0 13-7 23-10 23l-312 0 0 0z m-24 14c-7 0-15 4-18 11-50 91-83 206-83 285 0 152 126 276 281 276 154 0 280-124 280-276 0-79-33-194-82-285-6-10-18-14-28-8-11 5-14 18-9 28 46 84 78 193 78 265 0 129-107 234-239 234s-239-105-239-234c0-72 32-181 77-265 6-10 2-23-8-28-3-2-7-3-10-3z m-139 246c-64 0-135 26-175 53-9 5-12 15-9 25 36 92 148 183 313 165 12-1 20-12 19-23-1-12-12-20-23-19-133 15-226-51-262-122 51-28 136-51 187-28 11 5 23 0 28-11 4-10 0-23-11-27-20-9-43-13-67-13z m637-2c-23 0-44 4-64 13-11 4-15 17-11 27 5 11 17 16 28 11 50-22 131 2 182 30-36 71-129 137-262 122-11-1-22 7-23 19-1 11 7 22 19 23 164 18 277-73 312-166 3-9 0-19-9-24-40-26-108-55-172-55z m-360 284h-125c-69 0-125 56-125 125 0 11 9 21 21 21s21-10 21-21c0-46 37-83 83-83h125c12 0 21-10 21-21 0-12-10-21-21-21z m229 0h-146c-11 0-21 9-21 21 0 11 10 21 21 21h146c50 0 73 43 73 83 0 11 9 21 21 21s21-10 21-21c0-73-48-125-115-125z m-291-688c-12 0-21 10-21 21v84c0 11 9 20 21 20s20-9 20-20v-84c0-11-9-21-20-21z m208 0c-12 0-21 10-21 21v84c0 11 9 20 21 20s21-9 21-20v-84c0-11-10-21-21-21z m-208 383c-35 0-63 29-63 63 0 34 28 62 63 62s62-28 62-62c0-35-28-63-62-63z m0 84c-12 0-21-10-21-21 0-12 9-21 21-21s20 9 20 21c0 11-9 21-20 21z m208-84c-35 0-63 29-63 63 0 34 28 62 63 62 34 0 62-28 62-62 0-35-28-63-62-63z m0 84c-12 0-21-10-21-21 0-12 9-21 21-21s21 9 21 21c0 11-10 21-21 21z" horiz-adv-x="1000" />

<glyph glyph-name="dinosaur" unicode="&#xe81b;" d="M727-52h-152c-11 0-21 10-21 21v83c-15 2-43 3-83-3v-80c0-11-10-21-21-21h-125c-11 0-21 10-21 21v60c-42-24-126-59-280-77-10-1-19 5-22 14-3 9 0 19 8 24 50 33 91 103 139 186 71 121 151 258 293 330 10 5 22 1 28-9 5-10 1-23-10-28-130-66-207-198-275-314-34-59-65-112-99-152 174 30 223 80 224 81 5 6 15 8 23 5 7-3 13-11 13-19v-80h83v76c0 10 7 19 17 21 87 16 133 3 135 3 9-3 15-11 15-20v-80h105c-10 51-19 120-5 192 2 11 13 19 24 17 12-3 19-14 17-25-17-86 3-169 10-200 2-6 0-13-4-18-3-5-9-8-16-8z m5 207c-124 0-279 85-304 328-1 3 0 6 1 9 68 177 173 260 333 260 11 0 20-9 21-20 3-67 26-98 61-135 32 31 61 71 78 112 3 9 12 14 21 13 9-1 16-8 18-17 12-60-3-160-25-226 16-14 34-27 54-40 6-3 9-10 9-17 0-28-4-56-13-83-1-5-5-10-11-12-5-3-11-3-16 0-17 6-35 8-52 5 2-16 8-39 23-70 4-7 3-17-3-23-51-55-120-84-195-84z m-262 327c24-211 151-286 263-286 58 0 112 22 153 61-14 33-22 64-22 90 0 9 5 16 13 19 23 9 51 11 75 6 3 13 5 25 6 38-23 15-43 31-61 48-6 5-8 14-5 22 15 39 27 96 31 145-20-27-43-53-67-73-8-7-21-6-28 2-41 42-76 78-85 156-130-7-215-78-273-228z m262-43c-34 0-63 29-63 64 0 34 29 63 63 63s64-29 64-63c0-35-29-64-64-64z m0 85c-11 0-21-10-21-21 0-12 10-22 21-22 12 0 22 10 22 22 0 11-10 21-22 21z" horiz-adv-x="1000" />

<glyph glyph-name="dog" unicode="&#xe81c;" d="M630 235c-110 24-150 24-259 0-6-2-12-6-15-12s-2-13 0-18c14-29 38-57 66-87 21-22 44-44 65-73 4-5 10-7 17-7 0 0 0 0 0 0 7 0 13 2 17 8 20 27 41 53 59 74 28 32 53 58 65 88 2 6 2 12-1 17-3 5-8 9-14 10z m-81-90c-14-16-30-34-45-54-18 22-35 41-51 58-17 18-33 35-45 51 74 15 111 15 186 0-11-17-27-35-45-55z m-153 213c0 36-29 65-64 65s-65-29-65-65c0-35 29-64 65-64s64 29 64 64z m-64-22c-13 0-23 10-23 22s10 23 23 23 22-10 22-23-10-22-22-22z m336 87c-36 0-64-29-64-65 0-35 28-64 64-64 35 0 64 29 64 64 0 36-29 65-64 65z m0-87c-13 0-23 10-23 22s10 23 23 23 22-10 22-23-10-22-22-22z m201 356c-4 4-9 12-15 12h-294c-19 0-38 3-59 0-21 3-41 0-60 0h-294c-5 0-11-8-15-12-63-65-146-225-130-325 5-35 23-63 50-78 20-10 38-16 56-16 31 0 56 15 79 39 16-235 121-354 313-354 192 0 297 120 313 355 23-25 48-41 80-41 18 0 37 5 56 16 28 14 45 44 51 79 15 100-68 260-131 325z m-759-378c-11 0-24 3-37 10-16 9-26 30-30 52-11 77 51 203 113 287h198c-54-42-90-126-124-194-11-22-20-47-32-68-7-3-10-13-10-21 0-1 0-2 0-2 0-38-50-64-78-64z m390-315c-184 0-271 117-274 368 14 24 28 56 42 84 46 93 93 212 177 212h55c0 0 0 0 1 0l0 0c0 0 0 0 0 0 0 0 0 0 0 0h55c84 0 131-119 178-212 13-27 26-55 39-79-2-252-89-373-273-373z m458 377c-3-22-13-40-29-49-13-7-25-12-36-12-29 0-54 27-78 66 0 7-4 13-9 16-12 21-23 49-35 73-34 67-70 151-124 193h198c62-84 125-210 113-287z" horiz-adv-x="1000" />

<glyph glyph-name="dolphin" unicode="&#xe81d;" d="M302-21c-6 0-12 3-16 7-50 58-62 71-106 86-29-1-99-31-147-65-7-5-16-5-23-1s-11 13-10 21c12 76 71 169 174 200 102 195 246 322 317 376-32 47-89 57-122 59-10 1-18 9-19 19-1 10 5 19 14 22 70 21 159 10 236-29 13 6 24 11 34 15 57 22 101 32 138 32 62 0 106-29 138-92 55-5 82-19 89-43 6-20-9-40-24-50-4-3-9-5-14-4-59 5-123-5-192-28 5-73-23-194-39-218-5-8-15-11-24-9-9 3-14 11-14 20 0 29-17 59-50 86-15 13-26 31-30 49-146-83-267-195-322-248 14-50 31-131 33-178 0-2 1-4 1-6 0-11-9-21-22-21 0 0 0 0 0 0z m-122 134c4 0 7 0 10-1 39-13 60-27 84-50-7 42-18 91-27 122-2 7 0 15 5 20 54 55 199 191 374 283 8 4 18 3 24-3 6-6 8-16 4-24-6-14 0-33 15-45 20-17 34-33 43-49 11 47 20 111 14 149-1 10 5 19 14 23 77 28 149 40 216 36 1 1 2 2 2 3-3 0-16 8-63 12-8 0-14 5-18 12-25 55-56 78-105 78-31 0-72-9-124-29-11-4-23-10-38-18-6-3-14-3-20 0-34 18-71 31-108 37 24-16 42-37 55-62 4-9 2-20-6-26-62-46-218-174-324-382-2-5-7-9-13-10-69-18-115-68-138-119 44 24 94 43 124 43z" horiz-adv-x="1000" />

<glyph glyph-name="dove" unicode="&#xe81e;" d="M601-150c-135 0-166 88-189 153-3 10-7 20-10 29-107 4-137 54-164 98-25 42-46 79-140 79-8 0-15 4-19 10-3 7-3 15 1 21 41 68 76 99 114 99 28 0 49-16 69-30 16-12 31-24 46-24 62 0 171 110 268 206 108 108 181 189 263 311 4 7 11 10 18 10 8-1 14-5 18-12 60-121 73-325-20-480-48-77-139-170-312-181 18-58 111-65 153-65 63 0 118-43 123-96 2-22-4-97-155-122-23-4-45-6-64-6z m-466 398c87-10 115-55 139-96 25-42 47-78 141-78 8 0 15-5 19-12 7-14 12-29 18-46 21-61 43-124 149-124 17 0 37 1 58 5 76 13 122 42 119 77-2 28-36 58-81 58-123 0-197 47-197 127 0 11 9 20 21 21 168 3 255 90 299 162 78 128 76 293 33 406-75-108-146-186-247-286-112-112-218-218-297-218-28 0-51 16-71 31-15 11-30 22-44 22-16 0-36-16-59-49z m104 31c-6 0-11 2-15 6-13 13-44 48-53 97-6 35-2 89 53 144 91 91 121 183 141 243 12 35 20 60 35 75 4 4 10 6 15 6 27 0 53-24 75-70 52-109 77-323-33-461-7-9-20-10-30-3-8 7-10 20-3 30 98 121 75 320 29 416-12 25-23 37-30 42-6-11-12-28-18-48-22-64-54-162-152-259-34-34-48-71-41-108 7-37 31-64 41-74 8-8 8-22 0-30-4-4-9-6-14-6z" horiz-adv-x="1000" />

<glyph glyph-name="duck" unicode="&#xe81f;" d="M736 479c-76 0-140 66-140 144 0 77 64 143 140 143 67 0 120-57 134-104h52c39 0 78-42 78-84 0-40-26-83-69-83h-130c-5 0-13-3-22-6-12-5-27-10-43-10z m0 245c-53 0-98-46-98-101 0-55 45-102 98-102 9 0 19 3 30 7 11 4 23 8 35 8h131c15 0 26 23 26 42 0 19-20 42-36 42h-69c-10 0-19 8-20 19-3 30-44 85-97 85z m-432-595c-168 0-304 80-304 178 0 12 9 21 21 21h566c12 0 21-9 21-21 0-98-136-178-304-178z m-259 157c20-58 121-115 259-115s239 57 259 115h-518v0z m351-352c-310 0-356 116-356 185 0 39 13 77 37 107l33-25c-18-24-28-52-28-82 0-92 111-143 314-143 309 0 363 78 375 147 15 88-38 366-39 369l41 7c2-11 55-288 39-384-22-125-151-181-416-181z m122 352v42c15 0 28 5 39 17 32 32 48 108 47 227l0 9h41l1-9c0-84-5-202-59-257-19-19-42-29-69-29z m212 297c-34 0-63 28-63 62 0 35 29 63 63 63 35 0 63-28 63-63 0-34-28-62-63-62z m0 83c-11 0-21-9-21-21 0-11 10-21 21-21s21 10 21 21c0 12-9 21-21 21z" horiz-adv-x="1000" />

<glyph glyph-name="eagle" unicode="&#xe820;" d="M794-150h-624c-149 0-164 110-164 111l0 676c0 213 216 213 286 213h358c138 0 241-42 296-121 68-97 64-248-10-448-3-8-11-14-20-13-9 0-17 7-19 16l-4 14c-22 98-48 209-236 213 8-102 58-245 152-437 79-160 1-218-3-220-3-3-7-4-12-4z m-502 958c-171 0-245-51-245-171v-674c1 0 12-72 123-72h616c11 13 38 58-14 165-106 214-157 371-157 480 0 17 22 26 34 16 0 0 0 0 1 0 188 0 243-97 270-189 46 152 44 267-8 342-48 69-136 103-262 103h-358z m68-208c-35 0-63 28-63 63s28 62 63 62c34 0 62-28 62-62s-28-63-62-63z m0 83c-12 0-21-9-21-20s9-21 21-21c11 0 21 9 21 21s-10 20-21 20z m273-181c-10 0-19 7-21 17-15 88-42 252 53 318 10 6 23 4 29-6 7-9 4-22-5-29-73-50-48-203-36-276 2-11-5-22-17-24-1 0-2 0-3 0z m57-413c-38 0-69 30-69 68 0 15-12 27-27 27-16 0-28-12-28-27 0-38-31-68-69-68-38 0-69 30-69 68 0 15-12 27-27 27-16 0-28-12-28-27 0-38-31-68-69-68s-69 30-69 68c0 15-12 27-27 27-16 0-28-12-28-27 0-38-31-68-69-68s-69 30-69 68c0 12-8 22-19 26-11 3-17 15-13 26 3 11 15 17 26 14 28-10 48-36 48-66 0-15 12-27 27-27 15 0 28 12 28 27 0 38 30 69 69 69s69-31 69-69c0-15 12-27 27-27 15 0 27 12 27 27 0 38 31 69 70 69 38 0 69-31 69-69 0-15 12-27 27-27 15 0 27 12 27 27 0 38 31 69 70 69s69-31 69-69c0-15 12-27 27-27 7 0 14 3 19 8 6 5 8 12 8 19 0 12 10 21 21 21 12 0 21-9 21-21 0-18-7-35-20-48-13-13-31-20-49-20z" horiz-adv-x="1000" />

<glyph glyph-name="elephant" unicode="&#xe821;" d="M965-150c0 0 0 0-1 0h-83c-11 0-21 9-21 21 0 210-29 352-90 431-51-76-94-176-94-431 0-12-9-21-21-21h-168c-11 0-21 9-21 21 0 71-45 130-101 130-56 0-101-59-101-130 0-12-9-21-21-21h-208c-12 0-21 9-21 21 0 549 213 979 486 979 271 0 484-427 485-973 1-2 1-4 1-6 0-12-9-21-21-21z m-63 42h41c-5 507-202 916-443 916-242 0-439-409-444-916h168c8 85 68 151 141 151 73 0 133-66 142-151h127c3 276 57 373 117 456 4 4 10 8 16 8 6 0 12-2 16-6 78-80 117-230 119-458z m-249 524c-37 0-66 29-66 65 0 37 29 66 66 66 36 0 65-30 65-66 0-36-29-65-65-65z m0 89c-14 0-24-10-24-23 0-13 10-24 24-24 13 0 24 11 24 24 0 13-11 23-24 23z m-59-191c-140 0-260 102-275 240-14 139 94 266 242 284 12 1 22-7 24-18 1-12-7-22-19-24-109-13-219-107-205-238 13-124 129-214 259-201 11 1 21-7 23-18 1-12-7-22-19-23-10-1-20-2-30-2z" horiz-adv-x="1000" />

<glyph glyph-name="fish" unicode="&#xe822;" d="M792 337c-36 0-65 29-65 65 0 36 29 65 65 65s65-29 65-65c0-36-29-65-65-65z m0 88c-13 0-23-10-23-23 0-13 10-23 23-23 13 0 23 10 23 23 0 13-10 23-23 23z m-189-406c-2 0-5 0-7 1l-99 32c-11 3-17 15-13 26l28 92c-99 11-197 37-292 77-5-19-14-44-35-65-27-28-66-43-116-43l-8 1c-7 0-13 3-17 9-3 6-4 14-1 20 3 6 65 149-40 307-5 7-4 18 2 25 3 3 26 28 64 28 51 0 97-43 138-130 30 24 86 68 134 101l-46 52c-4 6-6 12-5 19 2 6 7 12 13 14l227 95c8 4 18 1 24-6l77-94 2 0c146 0 269-75 364-223 5-8 4-20-4-27l-37-33 13-12c5-4 7-10 7-16 0-6-2-11-6-15-4-3-86-78-263-89-5 0-9 0-13-1l-73-135c-4-6-11-10-18-10z m-74 66l64-20 70 130c3 6 10 11 17 11l6 0c6 0 12 1 18 1 116 7 188 44 219 64l-13 11c-4 4-6 10-6 16 0 6 2 11 7 15l41 37c-86 125-193 189-319 189l-11-1c-6 0-13 3-17 8l-73 90-186-78 42-49c4-4 6-10 5-16-1-6-4-12-9-15-69-44-171-127-172-128-5-4-12-5-18-4-6 2-12 6-14 12-48 113-90 130-110 130-9 0-16-3-21-5 77-128 58-246 43-300 27 3 48 12 63 28 27 27 26 66 26 66 0 7 4 14 10 18 6 4 13 4 20 2 109-49 217-78 330-88 7-1 12-4 16-9s4-12 2-18l-30-97z" horiz-adv-x="1000" />

<glyph glyph-name="flamingo" unicode="&#xe823;" d="M827 68c-30 0-118 0-208 1-91 0-184 0-216 0-8 0-15 0-23 0-62-2-147-4-201 88-52 75 14 179 77 281 41 65 83 132 85 180-82-3-147-70-147-152 0-12-9-21-21-21-11 0-20 9-20 21v157c0 99 78 177 182 185 7 20 26 32 54 32h23c78 0 136-55 136-127 0-75-41-94-91-98 8-105-41-180-78-236-18-29-36-56-32-69 1-5 7-11 17-16 28-15 52 2 92 32 35 26 75 56 127 56 0 0 0 0 0 0 54 0 114-30 167-82 61-61 98-140 98-211 0-12-10-21-21-21z m-425 43c33 0 126 0 217-1 73 0 145 0 186 0-7 54-37 113-85 161-44 44-95 69-137 69-39 0-71-24-102-48-39-29-83-63-136-35-21 11-34 25-39 42-8 31 12 63 38 102 38 58 84 130 69 231-1 6 1 12 5 16 4 5 10 8 16 8 62 0 73 14 73 57 0 49-40 85-95 85h-23c-16 0-16-4-16-10 0-12-9-21-20-21-89 0-159-63-159-144v-37c36 45 92 74 154 74 2 0 4 0 6-1 0 0 1 1 2 1 11 2 22-5 24-16 14-65-36-145-89-229-56-89-114-182-77-236 43-72 105-70 165-68 8 0 16 0 23 0z m63-251c-12 0-21 10-21 21v209c0 11 9 20 21 20 11 0 21-9 21-20v-209c0-11-10-21-21-21z m85 32c-4 0-8 1-11 3-10 6-13 19-8 29l34 58-88 60c-9 6-12 19-5 29 6 9 19 12 29 5l103-71c9-6 12-18 6-28l-42-74c-4-7-11-11-18-11z" horiz-adv-x="1000" />

<glyph glyph-name="fox" unicode="&#xe824;" d="M499-146c-96 0-208 79-208 181v194c0 11 9 21 21 21 11 0 21-10 21-21v-194c0-78 91-140 166-140 76 0 167 62 167 140v194c0 11 9 21 21 21 11 0 21-10 21-21v-194c0-102-112-181-209-181z m2 145c-38 0-69 30-69 68 0 38 31 68 69 68 37 0 68-30 68-68 0-38-31-68-68-68z m0 95c-15 0-27-12-27-27 0-15 12-27 27-27s26 12 26 27c0 15-12 27-26 27z m-211-21c-95 0-166 122-166 231v185c-7 16-14 33-23 50-41 91-93 204-95 286 0 6 2 11 6 15 4 4 10 6 15 6 103 0 297-51 393-148 8-8 8-22 0-30-8-8-21-8-29 0-81 81-244 129-341 136 9-72 53-169 89-247 9-20 18-38 25-55 1-3 2-6 2-8v-190c0-97 60-189 124-189 11 0 21-9 21-21 0-11-10-21-21-21z m419 0c-12 0-21 10-21 21 0 12 9 21 21 21 63 0 124 92 124 189v189c0 3 0 6 1 9 8 18 18 38 27 59 36 77 80 172 89 243-97-7-260-55-341-136-8-8-21-8-29 0-8 8-8 22 0 30 96 97 290 148 393 148 6 0 11-2 15-6 4-4 6-10 6-15-2-81-53-192-95-282-9-19-17-37-24-54v-185c-1-109-72-231-166-231z m-66 518c-12 0-21 10-21 21 0 20-47 50-121 50s-121-30-121-50c0-11-10-21-21-21-12 0-21 10-21 21 0 52 70 92 163 92 92 0 162-40 162-92 0-11-9-21-20-21z m-327-125c42 0 103-46 103-84-6-2-11-3-17-3-43 0-103 46-103 83 5 3 11 4 17 4m0 41l0 0c-12 0-23-2-33-6-16-7-26-22-26-39 0-64 81-124 144-124 12 0 24 2 34 6 15 6 25 22 25 38 0 65-81 125-144 125l0 0z m369-41c6 0 12-1 17-4 0-37-60-83-102-83-6 0-12 1-17 3 0 38 60 84 102 84m0 41c-63 0-144-60-144-125 0-16 10-32 26-38 10-4 21-6 33-6 63 0 144 60 144 124 0 17-10 33-25 39-10 4-22 6-34 6l0 0z" horiz-adv-x="1000" />

<glyph glyph-name="frog" unicode="&#xe825;" d="M500 142c-241 0-437 121-437 271 0 24 5 49 16 73-37 36-58 84-58 135 0 103 84 187 187 187 84 0 156-55 180-134 73 12 151 12 224 0 24 79 96 134 180 134 103 0 187-84 187-187 0-51-21-99-58-135 11-24 17-49 17-73 0-150-197-271-438-271z m-292 625c-80 0-145-66-145-146 0-44 20-85 55-113 8-7 10-18 5-27-13-22-19-45-19-68 0-127 178-230 396-230 218 0 396 103 396 230 0 23-6 46-19 68-5 9-3 20 5 27 35 28 56 69 56 113 0 80-66 146-146 146-71 0-131-51-144-120 0-6-4-11-8-14-5-3-10-4-16-3-81 16-167 16-248 0-5-1-11 0-16 3-4 3-8 8-8 14-13 69-73 120-144 120z m292-542c-183 0-326 90-326 204 0 12 9 21 21 21s20-9 20-21c0-88 131-162 285-162s285 74 285 162c0 12 9 21 21 21s20-9 20-21c0-114-143-204-326-204z m-292 208c-103 0-187 84-187 188 0 103 84 187 187 187s188-84 188-187c0-104-84-188-188-188z m0 334c-80 0-145-66-145-146s65-146 145-146 146 65 146 146-65 146-146 146z m0-209c-34 0-62 28-62 63s28 62 62 62 63-28 63-62-28-63-63-63z m0 84c-11 0-20-10-20-21 0-12 9-21 20-21s21 9 21 21c0 11-9 21-21 21z m584-209c-104 0-188 84-188 188 0 103 84 187 188 187s187-84 187-187c0-104-84-188-187-188z m0 334c-81 0-146-66-146-146s65-146 146-146 146 65 146 146-66 146-146 146z m0-209c-35 0-63 28-63 63s28 62 63 62 62-28 62-62-28-63-62-63z m0 84c-12 0-21-10-21-21 0-12 9-21 21-21s21 9 21 21c0 11-10 21-21 21z m-771-750c-12 0-21 9-21 20v172c0 90 34 177 98 249 7 9 20 10 29 2 9-8 10-21 2-29-57-65-87-142-87-222v-172c0-11-10-20-21-20z m958 0c-11 0-21 9-21 20v172c0 80-30 157-87 222-7 8-7 21 2 29 9 8 22 7 29-2 64-73 98-159 98-249v-172c0-11-9-20-21-20z" horiz-adv-x="1000" />

<glyph glyph-name="giraffe" unicode="&#xe826;" d="M500-146c-106 0-188 81-188 185v263l-77 78c-4 4-6 9-6 15v105c0 149 121 270 271 270 149 0 270-122 270-272v-103c0-6-2-11-6-15l-77-76v-263c0-103-84-187-187-187z m-230 549l78-78c4-4 6-9 6-15v-271c0-81 64-144 146-144 81 0 145 64 145 146v272c0 5 3 11 7 14l77 76v95c0 127-103 230-229 230s-230-102-230-227v-98z m188-404c-12 0-21 9-21 21v41c0 12 9 21 21 21 11 0 21-9 21-21v-41c0-12-10-21-21-21z m83 0c-11 0-21 9-21 21v41c0 12 10 21 21 21s21-9 21-21v-41c0-12-9-21-21-21z m-132 469c-7 0-13 3-17 9-24 36-77 48-118 27-10-5-22-1-28 9-5 10-1 23 9 28 60 31 137 13 171-41 7-10 4-23-6-29-3-2-7-3-11-3z m189 0c-4 0-8 1-11 3-10 6-13 19-6 29 35 54 112 72 171 41 10-5 14-18 9-28-5-10-18-14-28-9-41 21-94 9-117-27-4-6-11-9-18-9z m-78 260h-41c-46 0-83 38-83 83 0 12 9 21 21 21s20-9 20-21c0-22 19-41 42-41h41c12 0 21-10 21-21 0-12-9-21-21-21z m21 0h-21c-11 0-20 9-20 21 0 11 9 21 20 21h21c24 0 52 19 52 41 0 12 9 21 21 21 11 0 21-9 21-21 0-47-50-83-94-83z m-268-137c-1 0-2 0-3 0-221 25-250 158-248 235 0 11 10 20 21 20 56 0 194-20 236-49 5-3 8-8 9-14 2-20 27-62 55-79 10-6 13-18 7-28-5-10-18-14-28-8-35 21-65 66-74 99-34 17-127 33-184 37 5-72 49-153 211-172 11-1 20-11 18-23-1-10-10-18-20-18z m455 0c-11 0-20 8-21 18-1 12 7 22 18 23 162 19 206 100 211 172-56-4-150-20-184-37-9-33-38-78-74-99-10-6-22-2-28 8-6 10-3 22 7 28 29 17 53 59 56 79 0 6 4 11 9 14 41 29 179 49 235 49 11 0 21-9 21-20 2-77-27-209-248-235-1 0-2 0-2 0z" horiz-adv-x="1000" />

<glyph glyph-name="gorilla" unicode="&#xe827;" d="M499-150c-123 0-240 58-319 158-83 105-115 244-88 384-51 13-50 73-50 131v11c0 79 61 124 110 113 9-2 17-6 23-11 83 157 219 214 324 214s241-57 324-213c6 4 13 8 23 10 50 11 112-29 112-113 0-72 0-129-52-142 26-140-6-279-88-384-80-100-196-158-319-158z m-382 585c5 0 10-2 14-5 6-5 8-13 7-21-33-137-6-273 74-375 72-90 176-142 287-142 110 0 214 52 286 142 80 102 107 238 75 375-2 8 1 16 6 21 6 5 14 6 21 4l6-2c22 4 24 31 24 102 0 54-34 79-62 73-6-2-9-5-17-20-4-7-11-12-19-11-8 0-15 5-19 12-73 163-203 220-301 220-98 0-229-57-302-220-3-7-10-12-18-12-8-1-15 4-19 11-9 15-11 18-17 20-27 5-60-25-60-73v-11c0-54 1-87 21-91l6 2c3 1 5 1 7 1z m389-492c-172 0-301 147-301 279 0 52 22 102 60 139-39 26-60 62-60 106 0 76 65 134 152 134h299c87 0 152-58 152-134 0-45-22-84-60-110 39-37 60-85 60-137 0-131-129-277-302-277z m-149 617c-64 0-111-39-111-93 0-37 22-64 64-83 7-3 12-9 13-17 0-7-3-14-9-19-43-30-68-77-68-126 0-110 114-237 260-237 147 0 261 126 261 235 0 48-24 92-68 123-6 5-10 12-9 19 1 8 6 14 13 17 40 18 64 50 64 88 0 54-47 93-111 93h-299z m-3-162c-39 0-70 30-70 67 0 37 31 67 70 67s70-30 70-67c0-37-31-67-70-67z m0 92c-16 0-28-11-28-25s12-25 28-25c16 0 29 11 29 25 0 14-13 25-29 25z m197-230c-11 0-21 10-21 21 0 14-12 25-28 25s-29-11-29-25c0-11-9-21-20-21-12 0-21 10-21 21 0 37 31 67 70 67s70-30 70-67c0-11-9-21-21-21z m99 138c-39 0-71 30-71 67 0 37 32 67 71 67 38 0 70-30 70-67 0-37-32-67-70-67z m0 92c-16 0-29-11-29-25s13-25 29-25 28 11 28 25-13 25-28 25z m15-347h-333c-11 0-21 9-21 21s10 21 21 21h333c12 0 21-10 21-21s-9-21-21-21z" horiz-adv-x="1000" />

<glyph glyph-name="hipo" unicode="&#xe828;" d="M626 73h-471c-77 0-155 45-155 130v82c0 141 179 264 382 264 60 0 117-13 165-28-13 41-13 68-14 92 0 6 2 11 6 15 4 4 10 6 15 6 46 0 81-3 108-16 46 52 94 104 152 132 57 27 113-10 153-102 4-9 0-19-8-25-82-56-98-84-100-96 0-3 1-5 2-7 5-7 9-8 15-8 14 0 37 10 64 23l15 6c6 3 12 3 17 1 5-3 10-7 11-12 23-62 22-109-1-145-25-40-75-63-156-73-19-104-139-239-200-239z m-244 435c-181 0-340-104-340-223v-82c0-58 57-88 113-88h471c38 0 154 126 161 218 1 10 9 18 19 19 76 7 122 25 141 55 13 21 15 50 4 87-29-13-53-23-75-23-20 0-36 8-48 24-9 12-12 25-10 39 5 32 37 67 103 114-27 56-57 80-90 65-52-25-98-77-143-128l-6-7c-7-8-19-9-28-3-18 13-44 17-78 18 1-24 6-52 25-97 3-8 1-17-4-23-6-6-15-8-23-5-51 18-120 40-192 40z m322-93c-36 0-65 29-65 65 0 36 29 66 65 66 36 0 65-30 65-66 0-36-29-65-65-65z m0 89c-13 0-24-11-24-24 0-13 11-24 24-24 13 0 23 11 23 24 0 13-10 24-23 24z m-527-563c-12 0-21 10-21 21 0 37-9 54-22 80-4 8-9 17-14 27-4 11 0 23 11 28 10 5 23 0 27-10 5-10 9-19 13-26 14-28 27-52 27-99 0-11-10-21-21-21z m140 0c-11 0-21 10-21 21 0 49 13 72 26 98 5 8 9 17 14 27 4 10 17 15 27 10 11-5 15-17 11-27-5-11-10-20-15-29-12-24-21-40-21-79 0-11-9-21-21-21z m168 0c-11 0-20 10-20 21 0 40-9 55-21 78-5 9-10 18-15 30-5 10 0 22 10 27 11 5 23 0 28-10 5-11 9-19 14-27 13-26 25-48 25-98 0-11-9-21-21-21z m97 0c-12 0-21 10-21 21 0 50 12 72 26 98 4 8 9 17 13 27 5 10 17 15 28 10 10-4 15-17 10-27-5-12-10-21-14-29-13-24-21-40-21-79 0-11-10-21-21-21z" horiz-adv-x="1000" />

<glyph glyph-name="horse" unicode="&#xe829;" d="M347-135c-12 0-21 10-21 21v119c0 12 9 21 21 21 11 0 20-9 20-21v-119c0-11-9-21-20-21z m166 0c-11 0-21 10-21 21v116c0 11 10 21 21 21s21-10 21-21v-116c0-11-9-21-21-21z m-20 116c-86 0-245 10-292 47-76 59-42 271-26 323 23 76 97 116 213 116 63 0 122-12 155-20 28 101 85 198 121 252-3 33 5 100 12 121 2 6 7 11 13 14 6 2 13 1 19-3 15-11 57-64 71-102 2 0 4-1 6-1 38-5 79-19 158-136 53-78 69-139 48-179-14-27-48-41-78-35-48 9-105 54-141 97-17-30-35-82-43-126 42-68 53-261-37-337-32-27-138-31-199-31z m-105 445c-97 0-155-30-173-87-20-65-36-241 12-278 27-22 144-38 266-38 108 0 162 13 172 21 76 64 58 246 25 288-3 4-5 10-4 16 10 61 41 149 72 178 4 4 11 6 17 6 6-1 11-5 15-10 27-42 88-95 131-103 2-1 4-1 6-1 6 0 20 1 27 15 6 11 14 48-45 136-75 111-108 115-130 118-7 1-16 2-25 6-6 3-10 8-12 15-3 15-19 40-33 60-4-27-6-59-3-72 0-5-1-10-4-14-35-54-99-160-124-266-1-6-5-10-10-13-5-3-11-4-17-2-23 8-93 25-163 25z m-367-361c-9 0-17 6-20 14-3 9 0 18 7 23 20 15 24 73 28 123 7 80 14 170 86 170 24 0 51-11 84-33 8-5 12-15 9-24-3-9-11-15-21-14h0c-18 0-22-23-28-77-7-72-18-182-145-182z m101 288c-31 0-38-54-44-131-3-40-6-79-16-109 47 17 56 68 63 138 3 35 7 73 25 95-13 6-22 7-28 7z m100-488c-12 0-21 10-21 21v141c0 11 9 21 21 21 11 0 20-10 20-21v-141c0-11-9-21-20-21z m416 0c-11 0-21 10-21 21v125c0 12 10 21 21 21 12 0 21-9 21-21v-125c0-11-9-21-21-21z" horiz-adv-x="1000" />

<glyph glyph-name="kangoroo" unicode="&#xe82a;" d="M816-146l0 0c-3 0-7 1-10 1l-132 1c-10 0-19 7-21 18-5 40-32 155-83 171l-5-2c-21-9-45-19-71-19-83 0-127-30-178-65-63-42-134-91-291-91-10 0-19 7-20 17-2 10 4 20 14 23 60 20 112 114 158 198 36 64 67 121 103 146 8 265 310 427 406 437 9 8 19 16 28 24 4 3 8 6 11 9 25 90 112 121 116 123 7 2 14 1 19-3 6-4 9-10 9-17v-69c49-25 127-92 127-165 0-5-3-11-7-14-23-23-61-37-105-37-31 0-61 7-86 18-55-61-88-245-88-317 0-11-1-22-2-32 32 0 61-20 76-53 18-40 18-105-29-175h46c29 0 51-31 51-58l1-27c0-16-8-25-15-33-4-4-11-9-22-9z m-124 43h110c3 0 6 0 10-1l-1 26c0 7-7 16-10 17h-88c-8 0-15 5-19 12s-2 16 4 22c60 69 63 133 48 166-10 22-30 33-51 27-3-1-7-1-10 0l-8 2c-6 1-11 5-14 9-3 5-4 11-2 17 5 19 8 33 8 47 0 74 35 296 113 359 6 5 16 6 23 1 41-24 115-24 148-1-7 51-75 108-113 124-8 3-13 10-13 19v48c-23-15-53-42-63-85-1-4-3-8-6-11-6-5-12-10-18-15-10-8-21-17-30-26-4-4-10-6-15-6-59 0-374-147-374-408 0-8-5-15-12-19-28-14-62-76-96-136-33-61-70-127-114-171 94 12 144 46 193 80 55 37 106 72 202 72 18 0 36 7 54 15l12 5c4 2 8 2 12 1 80-14 111-140 120-190z m115 400c-32 0-47 29-58 51-6 13-13 27-20 27-12 0-21 10-21 21 0 11 9 21 21 21 32 0 47-29 58-51 6-13 13-27 20-27 12 0 21-10 21-21 0-12-9-21-21-21z" horiz-adv-x="1000" />

<glyph glyph-name="koala" unicode="&#xe82b;" d="M500 63c-46 0-83 37-83 83v125c0 46 37 84 83 84 46 0 83-38 83-84v-125c0-46-37-83-83-83z m0 250c-23 0-42-19-42-42v-125c0-23 19-41 42-41s42 18 42 41v125c0 23-19 42-42 42z m166 17c-37 0-67 30-67 67 0 37 30 67 67 67s66-30 66-67c0-37-30-67-66-67z m0 92c-14 0-25-11-25-25s11-25 25-25 24 11 24 25c0 14-11 25-24 25z m-320-92c-37 0-66 30-66 67 0 37 29 67 66 67 37 0 67-30 67-67 0-37-30-67-67-67z m0 92c-14 0-25-11-25-25s11-25 25-25c14 0 25 11 25 25 0 14-11 25-25 25z m148-488c-252 0-375 113-375 343 0 27 3 50 10 78h-36c-50 0-93 44-93 96v225c0 50 40 90 89 90 96 0 168-58 202-121 137 108 270 108 406 0 35 62 109 121 208 121 51 0 95-42 95-90v-225c0-54-56-96-105-96h-35c6-28 9-51 9-77 0-231-122-344-375-344z m-405 790c-26 0-47-21-47-48v-225c0-30 23-55 51-55h62c6 0 12-3 16-8 4-5 6-11 4-18-11-43-14-66-14-92 0-206 106-302 333-302 228 0 334 96 334 302 0 26-4 49-15 92-2 7 0 13 4 18s10 8 16 8h62c31 0 63 28 63 55v225c0 25-25 48-53 48-99 0-163-72-181-120-3-6-8-11-15-13s-13 0-18 5c-135 117-259 117-394 0-5-5-12-6-18-5-7 2-12 7-15 13-23 60-85 120-175 120z" horiz-adv-x="1000" />

<glyph glyph-name="leopard" unicode="&#xe82c;" d="M505-122h-10c-93 0-179 45-248 130-115 143-159 366-117 586-33 11-69 36-98 67-29 33-40 83-26 119 10 24 29 39 55 41 60 6 140-27 174-70 1-1 1-1 1-2 63 28 156 43 264 44 108-1 201-16 264-44 0 0 1 1 1 1 38 48 121 75 174 70 26-2 45-17 55-42 14-36 3-86-26-119-28-30-64-54-98-65 42-220-2-443-117-585-69-86-155-131-248-131z m-431 902c-3 0-6 0-10 0-6-1-14-3-19-16-7-18-2-52 18-75 29-31 66-55 95-60 6 0 10-4 14-8 3-5 4-11 3-17-46-211-5-435 104-570 61-75 136-114 216-114h10c80 0 155 39 216 114 109 135 150 359 104 570-1 6 0 12 3 17 3 4 8 7 14 8 31 6 68 28 95 58 21 23 26 57 18 76-5 13-13 15-20 15-46 5-112-22-137-54-4-4-6-8-8-11-2-6-7-9-12-11-6-2-11-1-16 1-57 30-150 47-262 48-112-1-205-17-262-47-5-3-11-4-16-2-5 2-10 6-12 11-2 4-5 8-8 12-23 30-82 55-128 55z m305-360h-41c-12 0-21 9-21 21s9 21 21 21h41c12 0 21-10 21-21s-9-21-21-21z m292 0h-42c-11 0-21 9-21 21s10 21 21 21h42c11 0 21-10 21-21s-10-21-21-21z m83 167h-41c-12 0-21 9-21 20s9 21 21 21h41c12 0 21-9 21-21s-9-20-21-20z m-458 0h-42c-11 0-21 9-21 20s10 21 21 21h42c11 0 21-9 21-21s-10-20-21-20z m125 83h-42c-11 0-21 9-21 21s10 21 21 21h42c11 0 21-10 21-21s-10-21-21-21z m208 0h-41c-12 0-21 9-21 21s9 21 21 21h41c12 0 21-10 21-21s-9-21-21-21z m-83-83h-83c-12 0-21 9-21 20s9 21 21 21h83c11 0 21-9 21-21s-10-20-21-20z m-42-445c-7 0-23 0-183 115-7 6-10 15-8 24 3 8 11 14 20 14h343c9 0 17-6 19-14 3-9 0-18-7-24-160-115-177-115-184-115z m-106 111c48-33 91-61 106-68 16 7 59 35 106 68h-212z m565 0h-209c-11 0-21 10-21 21s10 21 21 21h209c11 0 20-9 20-21s-9-21-20-21z m0-83h-250c-12 0-21 9-21 21s9 21 21 21h250c11 0 20-10 20-21s-9-21-20-21z m-709 83h-208c-12 0-21 10-21 21s9 21 21 21h208c12 0 21-9 21-21s-9-21-21-21z m42-83h-250c-12 0-21 9-21 21s9 21 21 21h250c11 0 21-10 21-21s-10-21-21-21z m166-111c-6 0-11 2-15 6-8 8-8 21 0 29l43 43c4 4 9 6 14 6l0 0c6 0 11-2 15-6l43-43c8-8 8-21 0-29-8-8-21-8-30 0l-28 28-28-28c-4-4-9-6-14-6z" horiz-adv-x="1000" />

<glyph glyph-name="lion" unicode="&#xe82d;" d="M375 519h-42c-11 0-20 9-20 21s9 21 20 21h42c12 0 21-10 21-21s-9-21-21-21z m333 0h-41c-12 0-21 9-21 21s9 21 21 21h41c12 0 21-10 21-21s-9-21-21-21z m-208-271c-6 0-12 3-16 7l-123 146c-6 6-7 15-3 22 3 8 10 13 19 13h247c8 0 15-5 19-13s2-16-3-22l-124-146c-4-4-10-7-16-7z m-79 146l79-93 79 93h-158z m270-548c-3 0-7 1-9 2l-180 87-180-87c-6-3-13-3-18 0-6 3-10 8-12 15l-37 197-122-35c-7-2-15 0-20 5-5 5-8 13-6 20l37 146-106 36c-8 2-14 10-14 19l-3 144c0 84 35 161 53 202 1 2 2 3 2 4-24 28-38 63-38 100 0 85 69 153 153 153 44 0 85-19 114-52 60 20 125 30 195 30 70 0 136-10 195-30 29 33 70 52 114 52 84 0 153-68 153-153 0-37-13-72-38-100 1-2 2-4 3-6 20-40 52-108 52-199l-1-146c0-8-6-16-14-19l-105-36 37-148c2-7 0-15-6-20-5-5-13-7-20-5l-122 32-37-191c-1-7-5-12-11-15-3-2-6-2-9-2z m-193 131h7c3 0 6-1 9-2l161-78 36 187c1 5 5 10 10 13s11 4 16 3l110-29-33 133c-3 10 3 21 13 24l109 38 2 130c0 82-30 144-48 181-4 8-7 15-10 21-3 7-1 17 5 23 23 21 35 50 35 81 0 61-49 111-111 111-35 0-69-18-90-47-5-8-15-11-24-7-115 42-274 42-390 0-9-4-18-1-24 7-21 29-54 47-90 47-61 0-111-50-111-111 0-31 12-60 35-81 6-6 8-15 5-24-2-4-5-10-8-17-17-38-50-109-50-184l4-130 109-36c11-4 17-14 14-25l-33-130 110 31c6 2 12 1 17-2 5-3 8-8 9-14l36-193 161 78c3 1 6 2 9 2z m85 190c-12 0-21 9-21 21 0 34-28 61-62 61-34 0-61-27-61-61 0-12-10-21-21-21s-21 9-21 21c0 57 46 103 103 103s103-46 103-103c0-12-9-21-20-21z m237 122c-1 0-1 0-2 0l-127 9c-11 1-20 11-19 22 1 12 11 20 22 20l127-10c12 0 20-10 20-22-1-11-10-19-21-19z m-28 63h-84c-11 0-20 10-20 21s9 21 20 21h84c11 0 21-10 21-21s-10-21-21-21z m-594-63c-11 0-20 8-21 19-1 12 8 22 20 23l127 9c11 0 21-8 22-20 1-11-8-21-19-22l-127-9c-1 0-1 0-2 0z m94 63h-84c-11 0-20 10-20 21s9 21 20 21h84c11 0 21-10 21-21s-10-21-21-21z" horiz-adv-x="1000" />

<glyph glyph-name="monkey" unicode="&#xe82e;" d="M500-59c-175 0-383 84-383 483 0 1 0 2 0 3-37 9-69 32-90 66-23 36-32 80-24 124 15 90 94 154 179 140 42-7 79-33 102-71 64 36 138 55 216 55 78 0 152-19 216-55 23 38 60 64 102 71 85 14 164-50 180-140 7-44-1-88-24-124-22-34-54-57-91-66 0-1 0-2 0-3 0-399-208-483-383-483z m-341 776c-56 0-105-46-115-107-6-34 0-68 18-95 17-27 42-44 71-49 1 0 8 0 8 0 6 0 11-3 14-7 4-5 6-10 5-16-1-7-1-13-1-19 0-293 115-441 341-441 226 0 341 148 341 441 0 5 0 11-1 16 0 6 1 13 5 17 3 4 8 8 14 9l5 0c32 5 57 22 74 49 18 27 24 61 18 95-11 67-70 116-131 105-36-6-66-31-81-67-3-6-7-10-13-12-6-2-12-1-18 3-61 40-135 61-213 61-78 0-152-22-213-61-5-4-12-5-18-3-5 2-10 6-13 12-15 36-45 62-81 68-5 1-11 1-16 1z m341-711c-148 0-268 120-268 267 0 30 6 59 16 88-8 19-16 41-16 70 0 101 81 218 186 218h164c105 0 186-117 186-218 0-24-5-45-16-70 11-30 16-57 16-87 0-147-120-268-268-268z m-82 601c-80 0-144-96-144-176 0-23 6-41 16-59 2-6 3-12 0-17-11-28-16-54-16-82 0-124 101-225 226-225 125 0 226 102 226 227 0 27-5 51-16 79-3 6-2 12 0 18 11 22 16 39 16 59 0 80-64 176-144 176h-164l0 0 0 0z m-41-188c-35 0-62 27-62 62 0 34 27 61 62 61 34 0 62-27 62-61 0-35-28-62-62-62z m0 82c-12 0-21-9-21-20 0-12 9-21 21-21 11 0 20 10 20 21 0 11-9 20-20 20z m82-370c-34 0-62 28-62 62 0 34 28 62 62 62 34 0 62-28 62-62 0-34-28-62-62-62z m0 82c-11 0-20-9-20-20 0-11 9-20 20-20s20 9 20 20c0 11-9 20-20 20z m164 206c-34 0-61 27-61 62 0 34 27 61 61 61 35 0 62-27 62-61 0-35-27-62-62-62z m0 82c-11 0-20-9-20-20 0-12 9-21 20-21 12 0 21 10 21 21 0 11-9 20-21 20z m-81-144h-84c-11 0-20 10-20 21 0 12 9 21 20 21h84c11 0 21-9 21-21 0-11-10-21-21-21z" horiz-adv-x="1000" />

<glyph glyph-name="mouse" unicode="&#xe82f;" d="M500-150c-173 0-283 504-283 631 0 155 127 282 283 282s283-127 283-282c0-127-110-631-283-631z m0 871c-133 0-241-108-241-240 0-156 120-589 241-589s241 433 241 589c0 132-108 240-241 240z m0-871c-42 0-82 29-121 88-5 7-5 17 0 24 29 38 73 60 121 60s92-22 121-60c5-7 5-17 1-24-39-59-80-88-122-88z m-78 98c21-28 49-56 78-56s57 28 78 56c-41 42-115 42-156 0z m316 339c-6 0-12 2-16 7-4 5-6 11-5 18 15 69 24 131 24 169 0 124-97 229-220 239-8 1-15 6-18 13-3 8-1 16 4 22 54 60 131 95 211 95 156 0 283-126 283-282 0-147-115-270-262-281 0 0-1 0-1 0z m-171 468c124-31 216-144 216-274 0-36-7-89-19-149 112 21 195 120 195 236 0 133-108 240-241 240-55 0-108-19-151-53z m-305-468c0 0-1 0-1 0-147 10-262 134-262 281 0 155 127 282 283 282 81 0 158-35 211-95 5-6 7-15 4-22-3-7-10-12-18-13-123-10-220-116-220-239 0-39 9-100 24-169 1-6-1-13-5-18-4-5-10-7-16-7z m20 521c-133 0-241-108-241-240 0-116 84-215 195-236-12 60-18 113-18 149 0 130 91 243 215 274-42 34-96 53-151 53z m114-416c-35 0-63 28-63 62s28 63 63 63 62-28 62-63-28-62-62-62z m0 83c-12 0-21-9-21-21s9-21 21-21c11 0 21 10 21 21s-10 21-21 21z m208-85c-35 0-64 29-64 64 0 36 29 65 64 65s65-29 65-65c0-35-29-64-65-64z m0 87c-12 0-23-10-23-23s11-23 23-23 23 11 23 23-10 23-23 23z m313-294h-292c-11 0-21 10-21 21 0 12 10 21 21 21h292c11 0 21-9 21-21 0-11-10-21-21-21z m-42-83h-250c-11 0-21 9-21 21 0 11 10 21 21 21h250c12 0 21-10 21-21 0-12-9-21-21-21z m-42-83h-208c-11 0-21 9-21 20 0 12 10 21 21 21h208c12 0 21-9 21-21 0-11-9-20-21-20z m-458 166h-292c-11 0-20 10-20 21 0 12 9 21 20 21h292c11 0 21-9 21-21 0-11-10-21-21-21z m0-83h-250c-11 0-21 9-21 21 0 11 10 21 21 21h250c11 0 21-10 21-21 0-12-10-21-21-21z m0-83h-208c-12 0-21 9-21 20 0 12 9 21 21 21h208c11 0 21-9 21-21 0-11-10-20-21-20z" horiz-adv-x="1000" />

<glyph glyph-name="panda" unicode="&#xe830;" d="M138 282l0 0c-35 0-51 15-58 27-15 27-7 67 28 127 52 88 110 133 173 133 106 0 181-128 185-133 2-5 3-11 2-16-2-5-5-10-10-13-9-5-220-125-320-125z m143 245c-47 0-93-38-137-112-37-63-30-82-28-85 2-4 10-6 22-6 67 0 210 71 280 109-23 31-76 94-137 94z m232-423l0 0c-91 0-154 119-157 124-4 8-2 18 4 24 27 27 115 30 152 30 57 0 129-6 146-33 4-7 4-15 1-21-43-82-92-124-146-124z m-109 125c22-33 64-83 109-83l0 0c34 0 67 29 100 84-17 5-52 10-101 10-51 0-88-5-108-11z m109-200l0 0c-88 0-152 75-154 78-8 9-6 22 2 29 9 7 22 6 30-2 0-1 54-63 122-63 0 0 0 0 0 0 39 0 77 21 112 62 7 9 20 10 29 3s10-20 3-29c-44-52-92-78-144-78z m0 11c-11 0-21 9-21 20v42c0 11 10 21 21 21s21-10 21-21v-42c0-11-9-20-21-20z m-4-170c-271 0-491 214-491 478 0 84 23 166 66 238-36 13-64 42-77 79-11 33-9 67 6 97 15 30 40 52 72 62 63 20 134-15 158-76 79 51 171 77 266 77 89 0 175-23 251-67 14 31 41 55 74 66 12 4 25 6 38 6 55 0 103-35 121-87 11-32 9-67-6-97-12-24-32-44-56-55 45-74 69-157 69-243-1-264-221-478-491-478z m-386 918c-8 0-17-1-25-4-21-6-38-21-48-40-10-21-11-44-4-65 11-32 40-55 73-59 8-1 14-5 17-12 3-6 3-14-2-20-48-72-74-155-74-241 0-240 201-436 449-436 247 0 449 196 449 436 0 87-26 171-76 243-4 5-5 13-2 19 2 7 8 11 14 13l8 2c21 6 37 21 47 40 10 20 12 44 4 65-14 44-63 69-107 55-28-9-48-32-54-62-1-7-6-13-12-15-7-3-14-2-20 2-74 49-161 74-251 74-97 0-189-29-267-86-6-4-14-5-21-2-7 3-11 9-12 17-1 5-2 12-4 17-12 36-45 59-82 59z m155-415c-34 0-63 28-63 62 0 35 29 63 63 63 34 0 62-28 62-63 0-34-27-62-62-62z m0 83c-11 0-21-9-21-21 0-11 10-20 21-20 11 0 21 9 21 20 0 12-10 21-21 21z m596-174c-100 0-310 120-319 125-5 3-9 8-10 13-2 5-1 11 2 16 3 5 79 133 185 133 63 0 121-45 172-133 35-60 44-100 29-127-8-12-24-27-59-27z m-279 151c70-38 213-109 279-109 12 0 20 2 22 6 2 3 9 22-28 85-43 74-90 112-137 112-61 0-114-63-136-94z m139-60c-34 0-62 28-62 62 0 35 28 63 62 63 35 0 63-28 63-63 0-34-28-62-63-62z m0 83c-11 0-20-9-20-21 0-11 9-20 20-20s21 9 21 20c0 12-9 21-21 21z" horiz-adv-x="1000" />

<glyph glyph-name="parrot" unicode="&#xe831;" d="M562 712c-5 0-11 2-15 6-3 4-6 9-6 15 0 5 3 11 6 15 8 7 22 7 30 0 4-4 6-10 6-15 0-6-2-11-6-15-4-4-9-6-15-6z m142-840c-1 0-3 0-4 1-10 2-17 11-17 21l17 400-77 8c-10 1-18 9-19 18l-45 315c-1 0-3 0-5 0-38 0-66 12-83 34-17 24-19 57-5 99 4 19 25 60 73 60 48 0 108-40 182-123 197-216 11-794 3-818-3-9-11-15-20-15z m-61 470l81-9c11-1 19-10 19-21l-10-222c40 187 71 462-42 587-87 95-132 109-152 109-26 0-33-28-33-29-7-22-12-48-1-63 11-15 35-17 49-17 11 0 19 1 19 1 6 1 12 0 16-4 5-3 8-8 9-14l45-318z m-195 236c-6 0-12 3-16 7-6 7-59 66-56 124 2 23 12 42 31 57 42 35 73 42 76 43 12 2 23-5 25-16 2-12-5-22-16-25-1 0-25-6-59-34-9-8-14-16-15-28-1-15 5-32 13-48 4 19 12 36 26 44 7 4 22 9 40-4 10-6 13-19 6-29-6-9-18-12-27-6-5-11-8-39-8-63 1-9-4-17-12-20-3-1-6-2-8-2z m-405-497c-7 0-14 4-18 11-6 10-2 22 8 28 4 2 416 227 928 131 11-2 19-13 17-25-3-11-14-18-25-16-496 94-896-124-900-126-3-2-6-3-10-3z m665 301c-10 0-18 7-20 17l-35 166c-2 12 5 23 16 25 11 2 22-5 25-16l34-167c3-11-4-22-16-25-1 0-3 0-4 0z" horiz-adv-x="1000" />

<glyph glyph-name="penguin" unicode="&#xe832;" d="M345 661c-5 0-10 3-15 7-3 4-6 9-6 15 0 5 3 10 6 14 9 8 22 8 30 0 4-4 6-9 6-14 0-6-2-11-6-15-4-4-10-7-15-7z m332-811h-354c-8 0-16 5-19 13-3 7-2 15 3 22l86 103 32-27-58-69h310l0-42 0 0z m-13-1c-41 0-122 6-195 47-189 104-255 380-209 869 1 5 2 9 5 12 3 3 65 73 149 74 36 0 78-20 113-52 67-63 131-316 202-616 24-102 49-207 60-229 33-15 101-54 117-63 8-3 14-10 14-20 0-11-10-21-21-20 0 0 0 0 0 0h-206c0-1-12-2-29-2z m-363 905c-43-460 19-728 188-822 94-51 199-40 201-40l129 0c-20 11-39 20-50 25-20 8-28 34-81 256-50 213-126 536-190 596-26 25-58 40-83 40-55-1-100-41-114-55z m-37-202c-2 0-3 1-4 1l-163 32c-9 2-15 8-17 16-1 9 2 17 9 22l177 118c10 6 23 3 29-6 6-10 4-23-6-29l-135-90 114-22c11-2 18-13 16-25-2-10-11-17-20-17z m300-568c-1 0-3 0-4 0-97 19-152 350-167 450-1 12 6 22 18 24 11 2 22-6 23-18 24-164 71-343 113-398 7 78 24 266 18 325-2 11 7 21 18 23 11 1 22-7 23-19 9-78-20-356-21-368-1-6-4-11-9-15-3-2-8-4-12-4z" horiz-adv-x="1000" />

<glyph glyph-name="sea-dog" unicode="&#xe833;" d="M434 251c-10 0-19 8-20 18-2 11 6 22 18 23 42 6 90 7 133 1 12-1 20-12 18-23-1-12-12-20-23-18-39 5-84 5-123-1-1 0-2 0-3 0z m-84 302c-35 0-64 29-64 64 0 34 29 63 64 63 35 0 63-29 63-63s-28-64-63-64z m0 85c-12 0-22-9-22-21 0-12 10-22 22-22s21 10 21 22-9 21-21 21z m298-85c-35 0-64 29-64 64 0 34 29 63 64 63s63-29 63-63-28-64-63-64z m0 85c-12 0-22-9-22-21 0-12 10-22 22-22s21 10 21 22-9 21-21 21z m-149-298c-3 0-5 1-8 2l-5 2c-30 11-72 26-72 81 0 2 0 4 1 6 10 33 52 45 84 45 42 0 74-17 83-44 1-2 1-5 1-7 0-59-53-76-78-84-2 0-4-1-6-1z m-44 81c2-20 14-26 44-38 27 9 41 18 43 38-6 8-23 14-43 14-23-1-39-8-44-14z m486-571c-11 0-21 9-21 21 0 138-68 268-183 346-10 7-12 20-6 29 7 10 20 12 29 6 127-86 202-229 202-381 0-12-9-21-21-21z m-882 0c-12 0-21 9-21 21 0 151 75 293 200 379 9 7 22 5 29-5 6-9 4-22-6-29-113-79-181-208-181-345 0-12-10-21-21-21z m528 333h-172c-142 0-214 21-214 136 0 74 59 136 129 136l24-1c33 54 88 88 147 88 59 0 115-34 148-91l23 1c70 0 129-61 129-133 0-115-72-136-214-136z m-259 230c-45 0-85-44-85-94 0-65 16-94 172-94h172c156 0 172 29 172 94 0 49-39 91-86 91l-36-1c0 0 0 0 0 0-8 0-15 5-19 12-25 49-70 79-117 79-48 0-92-29-117-78-4-7-12-12-20-11l-36 2z m-104-88c-7 0-14 4-18 10-31 53-47 113-47 174 0 188 153 341 341 341 188 0 341-153 341-341 0-60-16-119-46-171-4-8-12-12-21-10-8 1-15 7-17 16-9 39-45 68-84 68l-35-1c-8-1-16 4-20 11-25 49-69 79-117 79-48 0-92-29-117-78-4-8-12-12-20-12l-36 3c-39 0-75-31-83-72-2-9-9-15-17-17-1 0-3 0-4 0z m276 483c-165 0-300-134-300-299 0-39 8-77 23-113 23 36 63 59 107 59l24-1c33 54 88 88 147 88 59 0 115-34 148-89l23 1 0 0c43 0 82-23 106-57 14 36 22 74 22 112 0 165-135 299-300 299z m105-467c-6 0-13 2-17 8-6 9-5 22 5 29l170 128c9 7 22 5 29-5 7-9 5-22-4-29l-170-127c-4-3-9-4-13-4z m248-74h-208c-12 0-21 9-21 21s9 20 21 20h208c11 0 21-9 21-20s-10-21-21-21z m-461 74c-4 0-8 1-12 4l-171 127c-9 7-11 20-4 30 7 9 20 11 29 4l171-128c9-7 11-20 4-29-4-6-10-8-17-8z m-39-74h-208c-12 0-21 9-21 21s9 20 21 20h208c11 0 21-9 21-20s-10-21-21-21z" horiz-adv-x="1000" />

<glyph glyph-name="shark" unicode="&#xe834;" d="M220 596c-6 0-11 2-15 6-4 4-6 10-6 15s2 11 6 15c7 8 22 8 30 0 3-4 5-9 5-15s-2-11-6-15c-4-4-9-6-14-6z m597-665c-7 0-14 4-18 11l-92 166c-39 18-237 109-318 150-17-48-29-122-29-123-2-11-11-18-22-18-17 2-34 3-87 220-126 79-195 145-211 202-2 7 0 15 5 20 6 6 14 8 21 5 3-1 38-12 79-29-25 22-54 46-86 72-1 1-2 2-3 3-22 27-71 95-52 135 6 11 18 24 47 24 59 0 182-57 376-174 24 5 89 20 159 20 66 0 118-13 155-39 7-4 10-12 9-20s-7-15-15-17c-62-18-121-42-138-56 31-44 124-212 157-272 49 29 162 92 210 92 12 0 22-4 29-12 4-5 9-13 7-27-1-6-5-11-10-14-72-47-151-113-153-139-5-42 1-157 1-158 1-9-5-18-15-21-2-1-4-1-6-1z m-440 377c4 0 7-1 10-2 63-34 341-162 344-163 4-2 7-5 9-9l53-96c0 29 0 59 2 77 4 39 65 92 115 130-48-21-112-56-154-81-4-3-10-3-16-2-5 1-10 5-13 10-55 102-150 272-168 291-7 8-9 19-6 29 7 26 61 51 119 71-24 7-53 10-86 10-80 0-156-21-156-21-6-2-12-1-17 2-236 143-327 173-362 173-7 0-9-1-9-1-4-9 14-50 45-88 113-91 193-166 194-167 8-7 9-19 2-28-6-8-18-10-27-4-36 22-103 49-151 67 27-33 79-78 175-138 4-3 8-8 9-13 18-72 32-121 42-152 7 32 17 69 27 93 3 5 7 9 13 11 2 1 4 1 6 1z" horiz-adv-x="1000" />

<glyph glyph-name="sheep" unicode="&#xe835;" d="M500-150c-88 0-153 23-200 71-91 93-87 261-84 424 0 7 0 13 0 19-46-63-116-123-194-131-6 0-12 1-16 5-4 4-7 10-7 16 0 119 39 226 135 369 10 15 100 140 191 140 5 0 9 0 13-1 36 55 97 88 162 88s126-33 162-88c5 1 9 1 13 1 91 0 181-125 191-140 96-143 135-250 135-369 0-6-3-12-7-16-4-4-10-6-16-5-78 8-148 68-194 131 0-7 0-13 0-19 3-163 7-331-84-425-47-47-112-70-200-70z m-270 594c4 0 8-1 12-3l7-5c6-4 10-11 10-18 0-24-1-49-1-73-4-155-7-315 72-395 38-39 94-58 170-58s132 19 170 58c79 80 76 240 72 395 0 24-1 49-1 73 0 7 4 14 10 18l4 2c5 4 12 6 18 5 6-2 12-5 15-10 36-65 101-134 171-154-6 101-44 196-127 321-24 34-98 121-157 121-6 0-11 0-16-1 0 0-5-1-5-1-8-1-16 3-21 11-27 48-78 79-133 79-55 0-106-31-133-79-5-8-13-12-21-11 0 0-5 1-5 1-5 1-10 1-16 1-59 0-133-87-157-121-83-125-121-220-127-321 70 19 135 89 171 154 3 5 8 9 13 10 2 1 4 1 5 1z m166-73c-12 0-21 9-21 21v83c0 12 9 21 21 21 11 0 21-9 21-21v-83c0-12-10-21-21-21z m208 0c-11 0-21 9-21 21v83c0 12 10 21 21 21s21-9 21-21v-83c0-12-9-21-21-21z m-104-434c-5 0-11 2-15 6l-87 87c-8 9-8 22 0 30 8 8 21 8 29 0l73-73 73 73c8 8 21 8 29 0s8-21 0-30l-87-87c-4-4-10-6-15-6z" horiz-adv-x="1000" />

<glyph glyph-name="snake" unicode="&#xe836;" d="M354-108c-11 0-21 9-21 20 0 26-47 88-93 148-88 115-198 259-198 394 0 177 141 218 235 246l24 6c11 4 22-2 26-13 3-11-3-23-14-26l-24-7c-96-28-206-60-206-206 0-120 106-258 190-369 59-77 102-133 102-173 0-11-9-20-21-20z m292 0c-12 0-21 9-21 20 0 40 43 96 102 173 84 111 190 249 190 369 0 146-109 178-206 206-9 2-18 5-26 7-11 4-17 15-14 26 3 11 15 18 26 14 8-2 17-5 26-7 94-28 235-69 235-246 0-134-110-279-198-394-46-60-93-122-93-148 0-11-10-20-21-20z m-146 542c-112 0-208 127-208 231 0 93 74 143 208 143 134 0 208-50 208-143 0-104-96-231-208-231z m0 333c-76 0-167-18-167-102 0-83 79-190 167-190s166 107 166 190c0 84-90 102-166 102z m0-417c-11 0-21 9-21 21v83c0 12 10 21 21 21s21-9 21-21v-83c0-12-9-21-21-21z m44-46c-11 0-20 9-20 21 0 13-11 23-24 23s-23-10-23-23c0-12-10-21-21-21s-21 9-21 21c0 36 29 65 65 65 36 0 65-29 65-65 0-12-9-21-21-21z m-106 296c-6 0-11 2-15 6l-41 39c-9 7-9 21-1 29 8 9 21 9 29 1l42-39c8-8 9-21 1-29-4-5-10-7-15-7z m125 0c-6 0-12 2-16 7-8 8-7 21 1 29l42 39c8 8 22 8 29-1 8-8 8-21-1-29l-41-39c-4-4-9-6-14-6z" horiz-adv-x="1000" />

<glyph glyph-name="spider" unicode="&#xe837;" d="M495-77c0 0-1 0-1 0-49 2-91 26-122 69-37 53-51 131-33 191 10 44 27 89 52 130-1 10-2 20-2 31 0 84 40 175 105 176 67-1 107-93 107-176 0-11-1-21-2-31 25-41 42-86 52-132 18-58 4-136-34-189-30-43-72-67-121-69 0 0-1 0-1 0z m0 556c-33-1-65-67-64-135 0-12 1-22 2-32 1-5 0-10-3-14-24-39-41-82-51-126-15-49-3-113 27-156 16-23 44-49 89-52 45 3 73 29 88 52 31 43 43 107 28 155-10 45-27 87-51 127-3 4-4 9-3 14 1 10 2 20 2 32 0 69-31 134-64 135z m-113-212c-6 0-13 3-17 8l-139 188c-2 3-3 7-4 11l-27 332c0 11 8 21 20 22 11 1 21-7 22-19l27-326 135-183c7-9 5-22-5-29-3-3-8-4-12-4z m-2-24c-2 0-5 0-8 2l-229 106c-7 3-11 9-12 16l-32 285c-1 12 7 22 19 23 11 2 21-6 23-18l30-273 218-101c11-5 15-17 10-28-3-8-11-12-19-12z m-345-137c-5 0-10 1-14 5-9 7-10 20-2 29l117 137c4 5 9 8 16 8l222-2c12 0 21-10 21-21 0-12-10-21-21-21l-213 2-111-130c-4-5-9-7-15-7z m71-234c-2 0-5 0-7 1-11 4-16 15-13 26l92 265c1 5 5 9 9 12l183 106c10 6 23 2 29-8 5-10 2-23-8-29l-176-102-89-258c-3-8-11-13-20-13z m484 395c-5 0-9 2-13 5-9 8-10 21-2 29l162 183 26 325c1 12 11 20 22 19 12-1 20-11 19-22l-26-332c-1-4-3-9-6-12l-166-188c-4-5-10-7-16-7z m29-24c-7 0-15 4-18 12-5 10-1 23 10 28l218 101 30 273c1 12 11 20 23 18 12-1 20-11 19-23l-32-285c-1-7-6-13-12-16l-229-106c-3-2-6-2-9-2z m346-137c-6 0-11 2-15 7l-111 130-213-2c0 0 0 0 0 0-12 0-21 9-21 21s9 20 21 21l222 2c7 0 12-3 16-8l117-137c8-9 7-22-2-29-4-4-9-5-14-5z m-71-234c-9 0-17 5-20 14l-89 258-176 102c-10 5-13 18-8 28 6 10 19 13 29 8l183-106c4-3 8-7 9-11l92-266c3-11-2-22-13-26-2-1-5-1-7-1z m-463 574c-4 0-8 1-12 4-32 24-47 44-45 62 2 11 13 19 24 18 10-2 17-10 18-20 3-6 16-18 28-26 9-7 11-20 4-30-4-5-10-8-17-8z m127 0c-6 0-12 3-16 8-7 10-5 23 4 30 12 8 25 20 28 26 1 10 8 18 18 20 11 1 22-7 24-18 2-17-13-38-45-62-4-3-8-4-13-4z" horiz-adv-x="1000" />

<glyph glyph-name="squirrel" unicode="&#xe838;" d="M718-150c-65 0-173 0-218 71-45-71-154-71-218-71-63 0-118 27-156 75-50 64-64 157-39 256 6 24 149 582 413 582 264 0 407-558 413-582 25-99 11-192-39-256-38-48-93-75-156-75z m-197 152c0-102 89-110 197-110 50 0 93 21 123 59 42 54 53 134 32 220-39 153-180 550-373 550s-334-397-373-550c-21-86-10-166 32-220 30-38 74-60 123-60 108 0 197 9 197 110 0 12 10 21 21 21 11 0 21-9 21-20z m-283 501c-9 0-17 6-20 15l-87 305c-2 7-1 13 3 19s10 8 17 8c100 0 195-142 195-195 0-12-9-21-21-21-11 0-21 9-21 21 0 28-59 123-124 147l78-272c3-11-3-23-14-26-2 0-4-1-6-1z m524 0c-2 0-4 1-6 1-11 3-17 15-14 26l78 273c-65-24-124-120-124-148 0-11-10-21-21-21-12 0-21 10-21 21 0 53 95 195 195 195 7 0 13-3 17-8 4-5 5-12 3-18l-87-305c-3-10-11-16-20-16z m-437-261c-36 0-64 46-64 108 0 61 28 108 64 108s65-47 65-108c0-62-28-108-65-108z m0 174c-5 0-22-23-22-66 0-44 17-66 22-66 6 0 23 22 23 66 0 43-17 66-23 66z m350-174c-37 0-65 46-65 108 0 61 28 108 65 108s64-47 64-108c0-62-28-108-64-108z m0 174c-6 0-23-23-23-66 0-44 17-66 23-66 6 0 22 22 22 66 0 43-16 66-22 66z m-175-435c-68 0-125 49-125 108v11c0 11 9 21 21 21 11 0 21-10 21-21v-11c0-36 38-67 83-67s83 31 83 67v11c0 11 10 21 21 21s21-10 21-21v-11c0-59-57-108-125-108z" horiz-adv-x="1000" />

<glyph glyph-name="starfish" unicode="&#xe839;" d="M518 414c-6 0-11 2-15 5-4 4-7 10-7 15 0 6 3 11 7 15 7 8 22 8 29 0 4-4 6-9 6-15 0-5-2-11-6-15-4-3-9-5-14-5z m-131-139c-5 0-11 3-14 7-5 3-7 9-7 14 0 6 2 11 7 15 7 8 21 8 29 0 4-4 6-9 6-15s-2-11-6-14c-4-4-9-7-15-7z m44-125c-5 0-10 3-14 7-4 4-6 9-6 14 0 6 2 11 6 15 8 8 21 8 29 0 4-4 6-9 6-15 0-5-2-10-6-14-4-4-9-7-15-7z m175-7c-5 0-11 2-15 6-4 4-6 9-6 14 0 6 2 11 6 15 8 8 22 8 30 0 4-4 6-9 6-15 0-5-2-10-6-14-4-4-10-6-15-6z m29 138c-6 0-11 2-15 6-4 4-6 9-6 15s2 10 6 14c7 8 22 8 30 0 3-4 5-9 5-14s-2-11-6-15c-3-4-9-6-14-6z m-118-51c-35 0-63 28-63 63s28 63 63 63c35 0 63-28 63-63s-28-63-63-63z m0 84c-12 0-22-9-22-21s10-22 22-22 21 10 21 22c0 12-9 21-21 21z m269-464c-16 0-35 9-57 28l-150 128c-41 36-118 37-161 3l-145-116c-39-31-72-33-88-11-12 17-12 44 0 81l48 150c19 59-4 136-52 168l-135 93c-46 31-49 57-44 73 5 15 21 34 72 34h181c55 0 116 50 133 109l56 193c13 45 32 67 56 67 25 0 43-22 56-67l56-193c17-59 78-109 133-109h181c51 0 68-18 72-34 5-16 2-42-44-72l-135-91c-47-32-72-109-54-168l52-171c12-38 12-64-1-80-7-10-17-15-30-15z m0 42v-21 21l0 0z m-289 185c41 0 80-14 110-39l149-128c15-13 24-17 28-18 0 5 1 17-6 41l-53 171c-23 76 9 173 71 215l135 91c21 14 26 23 27 26-1 0-10 4-32 4h-181c-75 0-150 61-173 139l-56 193c-7 25-14 34-17 36 0-2-8-10-15-36l-56-193c-22-78-98-139-172-139h-182c-22 0-31-5-33-6 2-1 6-10 28-25l136-93c62-43 93-139 68-215l-48-151c-10-30-7-41-6-43 0 2 9 3 28 19l145 116c28 22 65 35 105 35z" horiz-adv-x="1000" />

<glyph glyph-name="tiger" unicode="&#xe83a;" d="M709-129c-62 0-165 0-209 70-44-70-147-70-209-70-125 0-189 110-189 326 0 52 0 155 25 261-65 32-108 100-108 176 0 108 84 195 188 195 56 0 109-26 145-70 44 18 94 27 148 27 54 0 104-9 149-27 35 44 88 70 144 70 104 0 188-88 188-195 0-76-42-144-108-176 25-106 25-210 25-261 0-216-64-326-189-326z m-188 152c0-102 85-111 188-111 37 0 147 0 147 285 0 53 0 162-28 268-2 10 3 21 13 24 59 22 99 80 99 145 0 85-66 154-147 154-48 0-93-25-120-66-6-9-17-12-26-8-43 20-92 30-147 30-55 0-104-10-147-30-9-4-20-1-26 8-27 41-72 66-120 66-81 0-147-69-147-154 0-65 40-123 99-145 10-3 15-14 13-24-28-106-28-215-28-268 0-285 110-285 147-285 103 0 188 9 188 111 0 11 10 21 21 21 12 0 21-10 21-21z m-173 372c-36 0-64 29-64 64 0 36 28 65 64 65 35 0 64-29 64-65s-29-64-64-64z m0 87c-13 0-23-10-23-23 0-12 10-23 23-23 13 0 23 11 23 23 0 13-11 23-23 23z m307-87c-36 0-65 29-65 64 0 36 29 65 65 65 35 0 64-29 64-65s-29-64-64-64z m0 87c-13 0-23-10-23-23 0-12 10-23 23-23s23 11 23 23c0 13-11 23-23 23z m-154-478c-83 0-145 55-145 127v107c0 12 9 21 20 21 12 0 21-9 21-21 0-50 43-105 104-105 62 0 105 55 105 105 0 12 9 21 20 21s21-9 21-21v-107c0-72-63-127-146-127z m-104 133v-6c0-49 44-85 104-85 61 0 105 36 105 85v6c-26-27-62-46-105-46-42 0-78 19-104 46z m-21 505c-11 0-20 9-20 21v83c0 11 9 21 20 21 12 0 21-10 21-21v-83c0-12-9-21-21-21z m84-42c-12 0-21 9-21 21v125c0 11 9 21 21 21 11 0 21-10 21-21v-125c0-12-10-21-21-21z m83 0c-11 0-21 9-21 21v125c0 11 10 21 21 21s21-10 21-21v-125c0-12-9-21-21-21z m83 42c-11 0-20 9-20 21v83c0 11 9 21 20 21s21-10 21-21v-83c0-12-9-21-21-21z m-496-509c-7 0-13 3-17 9-7 10-4 23 6 29l130 87c10 7 23 4 29-6 7-9 4-22-6-28l-130-88c-4-2-8-3-12-3z m2-87c-7 0-13 3-17 9-7 9-4 22 6 29l130 87c10 6 23 4 29-6 6-9 4-22-6-29l-130-87c-4-2-8-3-12-3z m741 87c-5 0-8 1-12 3l-131 88c-9 6-12 19-6 28 7 10 20 13 29 6l131-87c10-6 12-19 6-29-4-6-11-9-17-9z m-2-87c-4 0-8 1-12 3l-130 87c-10 7-13 20-6 29 6 10 19 12 28 6l131-87c10-7 12-20 6-29-4-6-11-9-17-9z" horiz-adv-x="1000" />

<glyph glyph-name="turtle" unicode="&#xe83b;" d="M70 288c-8 0-17 6-20 15-21 65-9 240 171 330 55 27 108 41 158 41 135 0 212-98 250-145 6-8 7-22 0-29-33-33-77-65-135-96-102-55-210-74-297-89-47-8-87-15-120-26-2 0-5-1-7-1z m309 344c-43 0-90-12-139-37-141-70-162-199-154-259 31 8 67 14 104 21 88 15 188 32 284 84 46 25 83 50 112 75-38 46-104 116-207 116z m309-630c-57 0-92 35-113 56-4 4-9 8-11 11l-68-1c-65 0-140 2-211 14-18-41-58-65-110-65-18 0-37 3-54 9-15 6-35 15-40 35-5 21 12 38 28 54 5 5 11 11 16 17-38 7-74 13-102 9-7-1-14 2-19 8-4 6-5 14-2 21 31 75 122 91 227 109 88 15 188 33 284 85 151 81 173 145 194 207 8 23 17 48 32 72 30 46 68 55 95 55 46 0 96-29 132-76 30-39 41-93 29-143-9-37-29-65-55-77-17-9-35-13-54-13l0 0c-25 0-50 9-68 23-47-46-68-97-88-146-7-19-15-37-23-53-3-47 22-82 42-111 17-24 31-44 22-66-10-22-37-29-66-33-6-1-12-1-17-1z m-121 108c14 0 24-10 37-22 20-21 49-49 96-44 27 5 33 9 34 10-2 1-12 15-19 25-22 31-55 78-49 142 1 3 1 5 2 7 9 17 16 35 24 53 22 57 48 121 114 176 5 4 11 5 16 5s11-4 15-9c7-11 26-22 50-22l0 0c12 0 24 3 36 9 14 6 26 25 32 49 7 29 5 73-22 108-28 37-66 60-99 60-24 0-44-13-60-37-12-19-20-40-27-63-23-66-49-141-214-230-103-55-210-74-297-89-76-13-140-24-174-54 31-3 66-9 100-17 6-1 11-5 14-10 3-5 3-11 1-17-7-23-25-40-39-54-4-5-10-11-14-15 3-1 6-3 11-5 13-4 26-7 40-7 19 0 65 5 76 52 3 10 14 17 25 15 72-14 151-16 220-16l71 0z" horiz-adv-x="1000" />

<glyph glyph-name="wolf" unicode="&#xe83c;" d="M317-153c-3 0-7 1-10 2-5 3-9 8-11 15l-36 196-119-35c-7-2-15 0-20 6-6 5-8 12-6 19l35 143-105 35c-8 2-13 10-14 18l-7 142c0 84 19 152 58 208v236c0 8 4 15 10 19 7 3 15 3 21-1l186-111c58 21 136 34 206 34 67 0 139-13 197-34l181 111c7 4 15 4 21 1 7-4 11-11 11-19v-236c40-58 61-128 61-208l-9-143c0-8-6-16-14-18l-101-36 34-139c2-3 3-7 3-11 0-11-9-21-21-20-2 0-4 0-6 0l-119 31-36-188c-1-7-5-12-11-15-6-3-13-3-18 0l-176 82-176-82c-3-2-6-2-9-2z m181 126h7c3 0 6-1 9-2l157-73 35 184c1 5 4 10 9 13 5 3 11 4 17 3l107-28-33 130c-2 10 4 21 14 25l107 36 7 128c0 72-19 136-57 188-2 3-4 8-4 12v206l-157-97c-6-3-13-4-19-2-56 22-126 35-192 35-68 0-147-14-200-35-6-2-13-1-19 2l-163 98v-207c0-4-1-9-4-12-35-50-53-111-53-188l6-126 109-36c10-4 16-14 14-25l-31-127 107 31c5 2 11 1 16-2 5-3 9-8 10-14l35-192 158 73c2 1 5 2 8 2z m0 112c-61 0-126 19-126 61s65 62 126 62c61 0 127-20 127-62s-66-61-127-61z m0 81c-52 0-82-15-85-21 3-3 33-18 85-18 53 0 82 15 86 21-4 3-33 18-86 18z m-104-47c-11 0-21 9-21 21v322l-87 56c-10 6-13 19-7 29 7 9 20 12 29 6l97-63c6-3 10-10 10-17v-333c0-12-9-21-21-21z m209 0c-12 0-21 9-21 21v333c0 7 3 14 9 17l97 63c10 6 23 3 29-6 6-10 4-23-6-29l-88-56v-322c0-12-9-21-20-21z" horiz-adv-x="1000" />

<glyph glyph-name="zebra" unicode="&#xe83d;" d="M399-140h-378c-6 0-11 2-15 6-4 4-6 9-6 15 2 334 237 595 310 667 48 49 111 82 179 94-15 93 73 171 103 194 8 6 20 5 27-2 41-40 45-128 29-202 29-10 54-25 72-43 49-49 95-146 143-248 29-62 60-127 89-175 65-107 64-193-3-255-24-23-52-34-81-34l0 0c-63 0-116 54-134 72-16 16-30 33-44 49-28 33-54 64-75 64-4 0-9-1-14-4-22-12-103-101-147-149-16-18-30-33-40-43-4-4-9-6-15-6z m-357 42h348c9 9 20 22 33 36 71 77 132 143 158 157 11 6 22 9 34 9 41 0 73-38 107-79 13-15 27-32 41-47 15-15 59-60 105-60 19 0 36 8 52 23 19 18 77 72-3 203-31 51-62 116-92 179-44 95-90 193-134 236-17 17-43 31-74 39-5 1-10 5-13 10-2 4-3 10-2 16 18 61 16 129-2 165-32-29-89-92-66-157 3-6 2-13-2-18-3-6-9-9-15-10-66-7-131-38-178-85-68-68-286-309-297-617z m395 20c-5 0-10 2-15 6-23 23-89 35-194 35-25 0-46 18-68 36-27 23-57 48-97 48-1 0-1 0-2 0-12 0-21 9-21 21 0 11 9 21 20 21 57 1 97-33 127-57 15-13 31-27 41-27 76 0 181-5 224-48 8-8 8-21 0-29-4-4-9-6-15-6z m84 83c-9 0-17 6-20 15-38 112-194 152-231 152-30 0-54 25-78 48-15 16-35 36-48 36-11 0-20 9-20 21s9 20 20 20c30 0 54-24 78-47 16-16 36-36 48-36 46 0 225-43 271-181 3-11-3-23-14-27-2 0-4-1-6-1z m83 84c-11 0-20 9-20 21 0 73-79 151-156 190-59 29-82 78-99 117-10 22-19 41-32 54-8 8-8 21 0 29 8 8 21 8 29 0 19-18 29-41 40-66 17-36 35-74 80-97 87-43 179-132 179-227 0-12-9-21-21-21z m0 0c-5 0-10 2-14 6-8 8-8 21 0 29 17 18 35 100 35 278 0 24 11 56 22 90 10 29 20 59 20 77 0 11 10 21 21 21 12 0 21-10 21-21 0-24-11-56-22-90-10-29-20-60-20-77 0-172-16-275-48-307-4-4-9-6-15-6z m84-42c-9 0-17 6-20 14-3 11 3 23 14 27 60 20 75 62 91 106 14 39 29 79 73 101 10 6 23 1 28-9 5-10 1-23-9-28-30-15-40-44-53-78-17-47-38-105-117-132-2-1-5-1-7-1z m126-125c-6 0-11 2-15 6-8 8-8 21 0 29 19 20 40 51 60 81 21 31 43 64 65 86 8 9 22 9 30 0 8-8 8-21 0-29-20-20-41-50-60-80-22-32-43-65-66-87-4-4-9-6-14-6z m-68 356c-35 0-63 28-63 63 0 34 28 63 63 63 34 0 62-29 62-63 0-35-28-63-62-63z m0 84c-12 0-21-10-21-21 0-12 9-21 21-21 11 0 21 9 21 21 0 11-10 21-21 21z" horiz-adv-x="1000" />

<glyph glyph-name="arrow-around" unicode="&#xe83e;" d="M122 289c-5 0-10 2-14 6l-95 86c-8 8-9 21-1 29 8 9 21 9 29 2l82-75 92 63c9 7 22 4 29-5 6-9 4-22-6-29l-104-73c-4-2-8-4-12-4z m0 40c-12 0-21 10-21 21 0 220 179 399 400 399 173 0 325-109 380-273 4-11-2-23-13-26-11-4-23 2-27 13-48 146-185 245-340 245-198 0-358-161-358-358 0-11-10-21-21-21z m851-48c-5 0-11 2-15 6l-80 76-93-61c-9-6-22-4-28 6-7 9-4 22 5 29l107 70c8 6 19 5 26-2l92-88c8-8 9-21 1-30-4-4-10-6-15-6z m-472-330c-173 0-325 110-380 273-3 11 2 23 13 26 11 4 23-2 27-13 49-146 185-245 340-245 198 0 359 161 359 358 0 12 9 21 20 21 12 0 21-9 21-21 0-220-179-399-400-399z m0 274c-69 0-125 56-125 125 0 69 56 125 125 125 69 0 125-56 125-125 0-69-56-125-125-125z m0 208c-46 0-83-37-83-83 0-46 37-83 83-83 46 0 83 37 83 83 0 46-37 83-83 83z" horiz-adv-x="1000" />

<glyph glyph-name="arrow-barrier" unicode="&#xe83f;" d="M271 600c-5 0-9 2-13 5l-91 73-91-73c-9-8-23-6-30 3-7 9-5 22 4 29l104 83c7 7 18 7 26 0l104-83c9-7 10-20 3-29-4-5-10-8-16-8z m-104-625c-12 0-21 9-21 21v708c0 12 9 21 21 21s21-9 21-21v-708c0-12-10-21-21-21z m437 625c-4 0-9 2-13 5l-91 73-91-73c-9-8-22-6-29 3-8 9-6 22 3 29l104 83c8 7 18 7 26 0l104-83c9-7 11-20 3-29-4-5-10-8-16-8z m-104-625c-11 0-21 9-21 21v708c0 12 10 21 21 21s21-9 21-21v-708c0-12-9-21-21-21z m438 625c-5 0-10 2-13 5l-92 73-91-73c-9-8-22-6-29 3-7 9-6 22 3 29l104 83c8 7 19 7 26 0l105-83c9-7 10-20 3-29-4-5-10-8-16-8z m-105-625c-11 0-20 9-20 21v708c0 12 9 21 20 21s21-9 21-21v-708c0-12-9-21-21-21z" horiz-adv-x="1000" />

<glyph glyph-name="arrow-circle" unicode="&#xe840;" d="M548-100c-248 0-450 202-450 450 0 248 202 450 450 450s450-202 450-450c0-248-202-450-450-450z m0 858c-225 0-408-183-408-408 0-225 183-408 408-408 225 0 408 183 408 408 0 225-183 408-408 408z m-429-429c-5 0-11 2-15 6l-96 99c-8 8-8 21 0 29 9 8 22 8 30 0l84-86 99 68c9 7 22 4 29-5 6-10 4-23-6-29l-113-78c-4-3-8-4-12-4z" horiz-adv-x="1000" />

<glyph glyph-name="arrow-cross" unicode="&#xe841;" d="M979 350h-958c-12 0-21 9-21 21s9 21 21 21h958c12 0 21-10 21-21s-9-21-21-21z m-87-112c-4 0-9 1-13 4-9 7-11 20-4 29l78 102-78 101c-7 10-5 23 4 30 9 7 22 5 29-4l88-114c5-8 5-18 0-26l-88-114c-4-5-10-8-16-8z m-784 0c-6 0-12 3-16 8l-88 114c-5 8-5 18 0 25l88 115c7 9 20 10 29 3 9-7 11-20 4-29l-78-101 78-102c7-9 5-22-4-29-4-3-8-4-13-4z m392-367c-11 0-21 9-21 21v916c0 12 10 21 21 21s21-9 21-21v-916c0-12-9-21-21-21z m114 850c-4 0-9 1-12 4l-102 78-101-78c-9-7-23-5-30 4-7 9-5 22 4 29l114 88c8 5 18 5 26 0l114-88c9-7 11-20 4-29-4-5-11-8-17-8z m-114-871c-4 0-9 1-13 4l-114 88c-9 6-11 20-4 29 7 9 21 11 30 4l101-78 102 78c9 7 22 5 29-4 7-9 5-23-4-29l-114-88c-4-3-8-4-13-4z" horiz-adv-x="1000" />

<glyph glyph-name="arrow-fork" unicode="&#xe842;" d="M500-129c-11 0-21 9-21 21v416c0 12 10 21 21 21 12 0 21-9 21-21v-416c0-12-9-21-21-21z m0 427c-11 0-21 9-21 21 0 11 10 21 21 21 55 0 104 54 104 114v354c0 12 10 21 21 21 12 0 21-9 21-21v-354c0-83-68-156-146-156z m0 0c-78 0-146 73-146 156v229c0 12 10 21 21 21 12 0 21-9 21-21v-229c0-60 50-114 104-114 12 0 21-10 21-21 0-12-9-21-21-21z m229 406c-4 0-9 2-13 5l-91 73-91-73c-9-7-22-6-29 3-8 9-6 22 3 29l104 84c8 6 18 6 26 0l104-84c9-7 11-20 3-29-4-5-10-8-16-8z m-250-83c-4 0-9 1-13 4l-91 73-91-73c-9-7-22-5-29 4-8 9-6 22 3 29l104 83c8 6 18 6 26 0l104-83c9-7 11-20 4-29-5-5-11-8-17-8z" horiz-adv-x="1000" />

<glyph glyph-name="arrow-from" unicode="&#xe843;" d="M750 277c-4 0-9 2-13 5-9 7-10 20-3 29l73 91-73 91c-7 9-6 22 3 30 9 7 22 5 29-4l84-104c6-7 6-18 0-26l-84-104c-4-5-10-8-16-8z m-562-83c-12 0-21 9-21 21v62c0 84 88 146 166 146h500c12 0 21-9 21-21s-9-21-21-21h-500c-56 0-125-46-125-104v-62c0-12-9-21-20-21z m770-21h-916c-12 0-21 9-21 21s9 21 21 21h916c12 0 21-10 21-21s-9-21-21-21z" horiz-adv-x="1000" />

<glyph glyph-name="arrow-inside-45" unicode="&#xe844;" d="M958-67h-666c-12 0-21 10-21 21v792c0 11 9 21 21 21h666c12 0 21-10 21-21v-792c0-11-9-21-21-21z m-645 42h625v750h-625v-750z m312 354c-11 0-21 10-21 21v83h-83c-12 0-21 10-21 21s9 21 21 21h104c12 0 21-9 21-21v-104c0-11-9-21-21-21z m-458-354c-6 0-11 2-15 6-8 8-8 21 0 30l425 424c8 8 21 8 29 0 8-8 8-21 0-29l-425-425c-4-4-9-6-14-6z m333 563c-11 0-21 9-21 20v84h-83c-12 0-21 9-21 21s9 20 21 20h104c12 0 21-9 21-20v-105c0-11-9-20-21-20z m-458-355c-6 0-11 2-15 6-8 9-8 22 0 30l425 425c8 8 21 8 29 0 8-9 8-22 0-30l-425-425c-4-4-9-6-14-6z" horiz-adv-x="1000" />

<glyph glyph-name="arrow-inside-gap-45" unicode="&#xe845;" d="M646 288c-12 0-21 10-21 21v208c0 5 1 9 4 12l147 208c7 9 20 11 29 4 9-6 12-19 5-29l-143-201v-202c0-12-10-21-21-21z m-292 0c-11 0-21 10-21 21v208c0 5 2 9 4 12l147 208c7 9 20 11 29 4 10-6 12-19 5-29l-143-201v-202c0-12-9-21-21-21z m-250-333c-11 0-21 9-21 21v500h-83c-12 0-21 9-21 21s9 20 21 20h104c12 0 21-9 21-20v-521c0-12-9-21-21-21z m792 0c-12 0-21 9-21 21v521c0 11 9 20 21 20h104c12 0 21-9 21-20s-9-21-21-21h-83v-500c0-12-10-21-21-21z m-542 330c-4 0-9 2-13 5l-104 83c-9 7-10 20-3 29 7 9 20 11 29 3l91-72 91 72c9 8 22 6 30-3 7-9 5-22-4-29l-104-83c-4-3-8-5-13-5z m292 0c-5 0-9 2-13 5l-104 83c-9 7-11 20-4 29 8 9 21 11 30 3l91-72 91 72c9 8 22 6 29-3 8-9 6-22-3-29l-104-83c-4-3-9-5-13-5z" horiz-adv-x="1042" />

<glyph glyph-name="arrow-inside-gap" unicode="&#xe846;" d="M354-4c-4 0-9 1-13 4l-104 84c-9 7-10 20-3 29 7 9 20 11 29 3l91-73 91 73c9 7 22 6 30-3 7-9 5-22-4-29l-104-84c-4-3-8-4-13-4z m0 0c-11 0-21 9-21 21v791c0 12 10 21 21 21s21-9 21-21v-791c0-12-9-21-21-21z m292 0c-5 0-9 1-13 4l-104 84c-9 7-11 20-4 29 8 9 21 11 30 3l91-73 91 73c9 7 22 6 29-3 8-9 6-22-3-29l-104-84c-4-3-9-4-13-4z m0 0c-12 0-21 9-21 21v791c0 12 9 21 21 21s21-9 21-21v-791c0-12-10-21-21-21z m-500-125c-12 0-21 9-21 21v500h-125c-12 0-21 9-21 21s9 20 21 20h146c11 0 21-9 21-20v-521c0-12-10-21-21-21z m708 0c-11 0-21 9-21 21v521c0 11 10 20 21 20h146c12 0 21-9 21-20s-9-21-21-21h-125v-500c0-12-9-21-21-21z" horiz-adv-x="1042" />

<glyph glyph-name="arrow-inside" unicode="&#xe847;" d="M573 371c-5 0-9 1-13 4-9 8-10 21-3 30l73 91-73 91c-7 9-6 22 3 29 9 8 22 6 29-3l84-104c6-8 6-19 0-26l-84-104c-4-5-10-8-16-8z m396-438h-750c-12 0-21 10-21 21v792c0 11 9 21 21 21h750c11 0 21-10 21-21v-792c0-11-10-21-21-21z m-729 42h708v750h-708v-750z m416 500h-625c-11 0-21 9-21 21s10 21 21 21h625c12 0 21-10 21-21s-9-21-21-21z m-83-396c-5 0-9 2-13 5-9 7-10 20-3 29l73 91-73 91c-7 9-6 22 3 30 9 7 22 5 29-4l84-104c6-7 6-18 0-26l-84-104c-4-5-10-8-16-8z m83 104h-625c-11 0-21 10-21 21s10 21 21 21h625c12 0 21-9 21-21s-9-21-21-21z" horiz-adv-x="1000" />

<glyph glyph-name="arrow-into" unicode="&#xe848;" d="M563 267c-5 0-10 1-13 4l-105 84c-9 7-10 20-3 29 7 9 20 10 29 3l92-73 91 73c9 7 22 6 29-3 7-9 6-22-3-29l-104-84c-4-3-9-4-13-4z m0 0c-12 0-21 9-21 21v62c0 50-22 104-84 104h-416c-12 0-21 10-21 21s9 21 21 21h416c75 0 125-59 125-146v-62c0-12-9-21-20-21z m395-63h-916c-12 0-21 10-21 21s9 21 21 21h916c12 0 21-9 21-21s-9-21-21-21z" horiz-adv-x="1000" />

<glyph glyph-name="arrow-join" unicode="&#xe849;" d="M887 220c-4 0-9 1-12 4-10 7-12 20-5 29l73 97-73 97c-6 10-5 23 5 29 9 7 22 5 29-4l82-110c5-7 5-17 0-24l-82-110c-4-6-11-8-17-8z m-305 103c-12 0-21 9-21 20 0 54-22 111-82 111h-448c-11 0-21 10-21 21s10 21 21 21h448c74 0 124-61 124-153 0-11-10-20-21-20z m-103-119h-448c-11 0-21 10-21 21s10 21 21 21h448c60 0 82 57 82 111 0 11 9 21 21 21s21-10 21-21c0-91-50-153-124-153z" horiz-adv-x="1000" />

<glyph glyph-name="arrow-junction" unicode="&#xe84a;" d="M708 538c-4 0-9 1-13 4-9 7-10 20-3 29l73 92-73 91c-7 9-6 22 3 29 9 7 22 6 30-3l83-104c6-8 6-19 0-26l-83-105c-4-5-11-7-17-7z m84 104h-459c-11 0-20 9-20 21s9 20 20 20h459c11 0 21-9 21-20s-10-21-21-21z m-500-354c-6 0-12 2-17 7l-83 105c-6 7-6 18 0 26l83 104c8 9 21 10 30 3 9-7 10-20 3-29l-73-91 73-92c7-9 6-22-3-29-4-3-9-4-13-4z m375 104h-459c-11 0-20 9-20 21s9 20 20 20h459c11 0 21-9 21-20s-10-21-21-21z m-146-521c-12 0-21 9-21 21v916c0 12 9 21 21 21s21-9 21-21v-916c0-12-10-21-21-21z" horiz-adv-x="1000" />

<glyph glyph-name="arrow-loop" unicode="&#xe84b;" d="M667 579c-5 0-9 2-13 5-9 7-11 20-4 29l73 91-73 91c-7 9-5 22 4 30 9 7 22 5 29-4l83-104c6-7 6-18 0-26l-83-104c-4-5-10-8-16-8z m-334-708c-6 0-12 2-16 8l-83 104c-6 7-6 18 0 26l83 104c7 9 20 11 29 3 9-7 11-20 4-29l-73-91 73-91c7-9 5-22-4-30-3-3-8-4-13-4z m646 104h-729c-11 0-21 9-21 21s10 21 21 21h708v666h-125c-11 0-20 10-20 21s9 21 20 21h146c12 0 21-9 21-21v-708c0-12-9-21-21-21z m-812 0h-146c-12 0-21 9-21 21v708c0 12 9 21 21 21h729c12 0 21-9 21-21s-9-21-21-21h-708v-666h125c11 0 21-10 21-21s-10-21-21-21z" horiz-adv-x="1000" />

<glyph glyph-name="arrow-merge" unicode="&#xe84c;" d="M958 329h-375c-11 0-20 10-20 21s9 21 20 21h375c12 0 21-9 21-21s-9-21-21-21z m-83-104c-4 0-9 2-13 5-9 7-10 20-3 29l73 91-73 91c-7 9-6 22 3 29 9 8 22 6 29-3l84-104c6-8 6-18 0-26l-84-104c-4-5-10-8-16-8z m-542 125c-4 0-9 2-13 5-9 7-10 20-3 29l73 91-73 91c-7 9-6 22 3 29 9 8 22 6 30-3l83-104c6-8 6-18 0-26l-83-104c-4-5-11-8-17-8z m-166-250c-5 0-9 2-13 5-9 7-11 20-4 29l73 91-73 91c-7 9-5 22 4 30 9 7 22 5 29-4l83-104c6-8 6-18 0-26l-83-104c-4-5-10-8-16-8z m416 229c-11 0-20 10-20 21 0 57-47 104-105 104h-416c-12 0-21 10-21 21s9 21 21 21h416c81 0 146-66 146-146 0-11-9-21-21-21z m-125-125h-416c-12 0-21 10-21 21s9 21 21 21h416c58 0 105 47 105 104 0 12 9 21 20 21 12 0 21-9 21-21 0-80-65-146-146-146z" horiz-adv-x="1000" />

<glyph glyph-name="arrow-mix" unicode="&#xe84d;" d="M875 454c-4 0-9 2-13 5-9 7-10 20-3 29l73 91-73 91c-7 9-6 22 3 30 9 7 22 5 29-4l84-104c6-7 6-18 0-26l-84-104c-4-5-10-8-16-8z m-750-458c-6 0-12 2-16 8l-84 104c-6 8-6 18 0 26l84 104c7 9 20 11 29 3 9-7 10-20 3-29l-73-91 73-91c7-9 6-22-3-30-4-3-8-4-13-4z m1 104h-84c-12 0-21 9-21 21s9 21 21 21h84c157 0 253 108 354 222 103 116 209 236 385 236h93c12 0 21-9 21-21s-9-21-21-21h-93c-157 0-253-108-354-222-103-116-209-236-385-236z m-1 354c-6 0-12 3-16 8l-84 104c-6 8-6 19 0 26l84 104c7 9 20 11 29 4 9-8 10-21 3-30l-73-91 73-91c7-9 6-22-3-29-4-3-8-5-13-5z m750-458c-4 0-9 1-13 4-9 8-10 21-3 30l73 91-73 91c-7 9-6 22 3 29 9 8 22 6 29-3l84-104c6-8 6-18 0-26l-84-104c-4-6-10-8-16-8z m83 104h-84c-175 0-284 120-390 236-104 114-202 222-359 222h-83c-12 0-21 10-21 21s9 21 21 21h83c175 0 284-120 390-236 104-114 202-222 359-222h84c12 0 21-10 21-21s-9-21-21-21z" horiz-adv-x="1000" />

<glyph glyph-name="arrow-out-left" unicode="&#xe84e;" d="M115 225c-6 0-12 3-16 8l-84 104c-6 8-6 18 0 26l84 104c7 9 20 11 29 4 9-8 10-21 3-30l-73-91 73-91c7-9 6-22-3-29-4-3-9-5-13-5z m854 104h-917c-12 0-21 10-21 21s9 21 21 21h917c11 0 20-9 20-21s-9-21-20-21z" horiz-adv-x="1000" />

<glyph glyph-name="arrow-out-right" unicode="&#xe84f;" d="M885 225c-4 0-9 2-13 5-9 7-10 20-3 29l73 91-73 91c-7 9-6 22 3 29 9 8 22 6 30-3l83-104c6-8 6-18 0-26l-83-104c-5-5-11-8-17-8z m63 104h-916c-12 0-21 10-21 21s9 21 21 21h916c12 0 21-9 21-21s-9-21-21-21z" horiz-adv-x="1000" />

<glyph glyph-name="arrow-outside-45" unicode="&#xe850;" d="M958-67h-583c-11 0-21 10-21 21v792c0 11 10 21 21 21h583c12 0 21-10 21-21v-792c0-11-9-21-21-21z m-562 42h542v750h-542v-750z m-250 208h-104c-12 0-21 10-21 21v104c0 12 9 21 21 21s21-9 21-21v-83h83c11 0 21-9 21-21s-10-21-21-21z m-90 25c-5 0-11 2-15 6-8 8-8 21 0 29l425 425c8 8 21 8 29 0 9-8 9-21 0-29l-424-425c-4-4-10-6-15-6z m215-233h-104c-12 0-21 9-21 21v104c0 12 9 21 21 21s21-9 21-21v-83h83c11 0 21-10 21-21s-10-21-21-21z m-90 24c-5 0-11 2-15 7-8 8-8 21 0 29l425 425c8 8 21 8 29 0 9-9 9-22 0-30l-424-425c-4-4-10-6-15-6z" horiz-adv-x="1000" />

<glyph glyph-name="arrow-outside-gap-45" unicode="&#xe851;" d="M604 631c-11 0-21 10-21 21v83h-83c-11 0-21 10-21 21s10 21 21 21h104c12 0 21-9 21-21v-104c0-11-9-21-21-21z m209 0c-12 0-21 10-21 21v83h-84c-11 0-20 10-20 21s9 21 20 21h105c11 0 20-9 20-21v-104c0-11-9-21-20-21z m-209-583c-11 0-21 9-21 21v416c0 5 2 9 5 13l188 249c7 9 20 11 30 4 9-7 11-20 4-29l-185-244v-409c0-12-9-21-21-21z m-208 0c-12 0-21 9-21 21v416c0 5 2 9 4 13l189 249c7 9 20 11 29 4 10-7 11-20 4-29l-184-244v-409c0-12-10-21-21-21z m-125-125c-12 0-21 9-21 21v500h-208c-12 0-21 9-21 21s9 20 21 20h229c11 0 21-9 21-20v-521c0-12-10-21-21-21z m458 0c-11 0-21 9-21 21v521c0 11 10 20 21 20h229c12 0 21-9 21-20s-9-21-21-21h-208v-500c0-12-9-21-21-21z" horiz-adv-x="1000" />

<glyph glyph-name="arrow-outside-gap" unicode="&#xe852;" d="M250 703c-6 0-12 2-16 7-7 9-6 23 3 30l104 83c8 6 19 6 26 0l104-83c9-7 11-20 4-29-8-9-21-11-30-4l-91 73-91-73c-4-3-8-4-13-4z m104-706c-11 0-21 10-21 21v750c0 12 10 21 21 21s21-9 21-21v-750c0-11-9-21-21-21z m188 706c-6 0-12 2-17 7-7 9-5 23 4 30l104 83c7 6 18 6 26 0l104-83c9-7 11-20 3-29-7-9-20-11-29-4l-91 73-91-73c-4-3-9-4-13-4z m104-706c-12 0-21 10-21 21v750c0 12 9 21 21 21s21-9 21-21v-750c0-11-10-21-21-21z m-375-125c-12 0-21 10-21 21v500h-208c-12 0-21 10-21 21s9 21 21 21h229c11 0 21-9 21-21v-521c0-11-10-21-21-21z m458 0c-11 0-21 10-21 21v521c0 12 10 21 21 21h229c12 0 21-9 21-21s-9-21-21-21h-208v-500c0-11-9-21-21-21z" horiz-adv-x="1000" />

<glyph glyph-name="arrow-outside" unicode="&#xe853;" d="M115 371c-6 0-13 3-17 8l-83 104c-6 7-6 18 0 26l83 104c8 9 21 10 30 3 9-7 10-20 3-29l-73-91 73-91c7-9 6-22-3-30-4-3-9-4-13-4z m854-438h-750c-12 0-21 10-21 21v792c0 11 9 21 21 21h750c11 0 21-10 21-21v-792c0-11-10-21-21-21z m-729 42h708v750h-708v-750z m416 500h-625c-11 0-21 9-21 21s10 21 21 21h625c12 0 21-10 21-21s-9-21-21-21z m-541-396c-6 0-13 3-17 8l-83 104c-6 8-6 19 0 26l83 104c8 9 21 11 30 4 9-8 10-21 3-30l-73-91 73-91c7-9 6-22-3-29-4-3-9-5-13-5z m541 104h-625c-11 0-21 10-21 21s10 21 21 21h625c12 0 21-9 21-21s-9-21-21-21z" horiz-adv-x="1000" />

<glyph glyph-name="arrow-over" unicode="&#xe854;" d="M875 204c-4 0-9 2-13 5-9 7-10 20-3 29l73 91-73 91c-7 9-6 22 3 30 9 7 22 5 29-4l84-104c6-7 6-18 0-26l-84-104c-4-5-10-8-16-8z m-394 42c-46 0-83 37-83 82 0 45 37 82 83 82 45 0 82-37 82-82s-37-82-82-82z m0 122c-23 0-41-18-41-40 0-22 18-40 41-40 22 0 40 18 40 40 0 22-18 40-40 40z m477-60h-354c-11 0-21 10-21 21v21c0 57-46 104-104 104s-104-47-104-104v-21c0-11-9-21-21-21h-312c-12 0-21 10-21 21 0 12 9 21 21 21h291c0 80 66 146 146 146 81 0 146-66 146-146h333c12 0 21-9 21-21 0-11-9-21-21-21z" horiz-adv-x="1000" />

<glyph glyph-name="arrow-shuffle" unicode="&#xe855;" d="M875 454c-4 0-9 2-13 5-9 7-10 20-3 29l73 91-73 91c-7 9-6 22 3 30 9 7 22 5 29-4l84-104c6-7 6-18 0-26l-84-104c-4-5-10-8-16-8z m-327-45c-5 0-10 2-14 6-9 7-10 21-2 29 86 95 221 156 343 156h83c12 0 21-9 21-21s-9-21-21-21h-83c-111 0-234-55-312-142-4-4-10-7-15-7z m-505-309c-12 0-21 9-21 21s9 21 21 21c122 0 284 65 355 143 7 9 20 9 29 2 9-8 9-21 1-30-78-87-251-157-385-157z m832-104c-4 0-9 1-13 4-9 8-10 21-3 30l73 91-73 91c-7 9-6 22 3 29 9 8 22 6 29-3l84-104c6-8 6-18 0-26l-84-104c-4-6-10-8-16-8z m83 104h-84c-174 0-305 119-430 235-126 115-244 223-402 223-12 0-21 10-21 21s9 21 21 21c174 0 304-119 430-235 125-115 244-223 402-223h84c12 0 21-10 21-21s-9-21-21-21z" horiz-adv-x="1000" />

<glyph glyph-name="arrow-squiggly" unicode="&#xe856;" d="M876 11c-4 0-9 1-13 4-9 7-10 20-3 30l73 91-73 91c-7 9-6 22 3 29 9 7 22 6 30-3l83-104c6-8 6-19 0-26l-83-104c-5-6-11-8-17-8z m-647-127c-5 0-9 1-13 4-76 56-193 246-196 405-2 77 24 138 74 179 59 46 131 50 188 10 56-40 105-134 59-266-34-99-18-185 46-236 51-41 123-49 173-19 49 30 80 85 84 151 6 95-45 193-134 264-104 82-196 175-173 308 13 77 81 130 169 132 92 3 215-55 254-226 22-95 33-179 41-246 17-127 27-187 70-187h89c11 0 20-10 20-21 0-12-9-21-20-21h-89c-82 0-93 89-111 223-9 67-19 150-41 243-33 146-136 195-212 193-67-2-119-40-129-97-19-111 64-195 157-268 102-81 157-190 150-299-4-80-42-147-104-185-64-39-155-30-220 22-37 30-117 117-59 283 38 110 0 186-44 218-42 29-93 26-138-9-40-32-60-81-59-145 3-141 110-321 180-373 9-6 11-19 4-29-3-5-10-8-16-8z" horiz-adv-x="1000" />

<glyph glyph-name="arrow-through" unicode="&#xe857;" d="M958 329h-250c-11 0-20 10-20 21s9 21 20 21h250c12 0 21-9 21-21s-9-21-21-21z m-583 0h-333c-12 0-21 10-21 21s9 21 21 21h333c12 0 21-9 21-21s-9-21-21-21z m500-104c-4 0-9 2-13 5-9 7-10 20-3 29l73 91-73 91c-7 9-6 22 3 29 9 8 22 6 29-3l84-104c6-8 6-18 0-26l-84-104c-4-5-10-8-16-8z m-427-130c-141 0-255 114-255 255 0 141 114 255 255 255s255-114 255-255c0-141-114-255-255-255z m0 469c-118 0-214-96-214-214s96-213 214-213 214 95 214 213-96 214-214 214z" horiz-adv-x="1000" />

<glyph glyph-name="arrow-to" unicode="&#xe858;" d="M954 228c-6 0-12 3-16 8-92 115-241 189-422 207-186 20-384-23-480-103-9-7-22-6-29 3-8 9-7 22 2 29 105 87 315 133 512 113 191-20 351-99 450-223 7-9 5-22-4-30-3-3-8-4-13-4z m24-17h-105c-11 0-20 9-20 20s9 21 20 21h84v84c0 11 9 20 21 20s20-9 20-20v-105c0-11-9-20-20-20z" horiz-adv-x="1000" />

<glyph glyph-name="double-circle" unicode="&#xe859;" d="M551-97l0 0c-120 0-232 46-317 131-85 84-131 197-131 316 0 247 201 447 449 447 119 0 232-46 317-131 85-84 131-196 131-316 0-247-201-447-449-447z m1 853c-225 0-408-182-408-406 0-108 42-210 119-287 77-77 179-119 288-119 225 0 407 182 407 406 0 108-42 210-119 287-76 77-179 119-287 119z m-1-651c-135 0-246 110-246 245 0 66 26 127 72 173 47 47 108 72 174 72 136 0 246-110 246-245 0-65-25-127-72-173-46-47-108-72-174-72z m0 449c-54 0-106-22-144-60-39-38-60-90-60-144 0-112 92-204 204-204h0c55 0 106 22 145 60s60 90 60 144c0 112-92 204-205 204z m-428-225c-5 0-10 2-14 6l-103 101c-8 8-8 21 0 30 8 8 21 8 29 0l91-89 108 68c9 6 22 4 28-6 7-10 4-23-6-29l-121-77c-4-3-8-4-12-4z m654 0c-4 0-8 1-11 3l-124 74c-10 6-13 19-7 29 6 10 19 13 29 7l109-66 88 92c8 8 22 9 30 1 8-8 8-21 0-30l-99-103c-4-5-10-7-15-7z" horiz-adv-x="1000" />

<glyph glyph-name="full-view-2" unicode="&#xe85a;" d="M958 558h-916c-12 0-21 10-21 21s9 21 21 21h916c12 0 21-9 21-21s-9-21-21-21z m-104-708h-708c-81 0-146 65-146 146v708c0 81 65 146 146 146h708c81 0 146-65 146-146v-708c0-81-65-146-146-146z m-708 958c-58 0-104-46-104-104v-708c0-58 46-104 104-104h708c58 0 104 46 104 104v708c0 58-46 104-104 104h-708z" horiz-adv-x="1000" />

<glyph glyph-name="full-view" unicode="&#xe85b;" d="M801-150h-41c-12 0-21 9-21 21s9 21 21 21h41c12 0 21-10 21-21s-9-21-21-21z m-125 0h-41c-12 0-21 9-21 21s9 21 21 21h41c12 0 21-10 21-21s-9-21-21-21z m-124 0h-42c-11 0-21 9-21 21s10 21 21 21h42c11 0 20-10 20-21s-9-21-20-21z m-125 0h-42c-11 0-21 9-21 21s10 21 21 21h42c11 0 21-10 21-21s-10-21-21-21z m-125 0h-41c-12 0-21 9-21 21s9 21 21 21h41c12 0 21-10 21-21s-9-21-21-21z m-125 0h-31c-4 0-8 0-12 0-11 1-20 11-19 23 1 11 11 20 23 19 2 0 5 0 8 0h31c12 0 21-10 21-21 0-12-9-21-21-21z m707 3c-10 0-18 7-20 16-3 12 4 23 15 26 11 2 22 7 32 13 9 6 22 4 28-6 7-10 4-22-6-29-13-9-28-15-44-19-2 0-3-1-5-1z m-823 30c-5 0-10 2-14 6-12 11-22 24-29 38-6 10-2 23 8 28 10 6 23 2 28-8 6-11 13-20 21-28 9-7 9-21 2-29-5-4-10-7-16-7z m911 51c-2 0-4 0-7 1-10 4-16 16-12 27 3 11 5 22 5 34 0 11 10 21 21 21s21-8 21-20v-1c0-17-3-33-8-48-3-9-11-14-20-14z m-951 63c-12 0-21 9-21 20v42c0 12 9 21 21 21s21-9 21-21v-42c0-11-10-20-21-20z m958 63c-11 0-21 9-21 20v42c0 12 10 21 21 21s21-9 21-21v-42c0-11-9-20-21-20z m-958 61c-12 0-21 10-21 21v42c0 11 9 21 21 21s21-10 21-21v-42c0-11-10-21-21-21z m958 63c-11 0-21 10-21 21v42c0 11 10 21 21 21s21-10 21-21v-42c0-11-9-21-21-21z m-958 62c-12 0-21 9-21 21v42c0 11 9 20 21 20s21-9 21-20v-42c0-12-10-21-21-21z m958 63c-11 0-21 10-21 21v42c0 11 10 20 21 20s21-9 21-20v-42c0-12-9-21-21-21z m-958 62c-12 0-21 9-21 21v41c0 12 9 21 21 21s21-9 21-21v-41c0-12-10-21-21-21z m958 63c-11 0-21 9-21 21v41c0 12 10 21 21 21s21-9 21-21v-41c0-12-9-21-21-21z m-958 62c-12 0-21 9-21 20v42c0 12 9 21 21 21s21-9 21-21v-42c0-11-10-20-21-20z m958 63c-11 0-21 9-21 20v42c0 12 10 21 21 21s21-9 21-21v-42c0-11-9-20-21-20z m-958 61c-12 0-21 10-21 21v42c0 11 9 21 21 21s21-10 21-21v-42c0-11-10-21-21-21z m958 63c-11 0-21 10-21 21 0 12-2 23-5 34-4 11 2 23 13 27 10 3 22-2 26-13 5-16 8-31 8-48 0-11-9-21-21-21z m-943 60c-4 0-7 0-10 2-10 6-14 18-8 28 7 15 17 27 29 38 9 8 22 8 30-1 7-8 7-21-2-29-8-8-15-17-21-27-4-8-11-11-18-11z m886 45c-4 0-8 1-11 4-10 6-21 11-32 13-11 3-18 14-15 26 3 11 14 18 25 15 16-4 31-11 44-19 10-7 13-20 6-29-4-6-10-10-17-10z m-786 20c-11 0-20 8-21 19-1 12 8 22 19 23 4 0 8 0 12 0h32c11 0 20-9 20-21s-9-21-20-21h-32c-3 0-6 0-8 0-1 0-2 0-2 0z m665 0h-41c-12 0-21 10-21 21s9 21 21 21h41c12 0 21-9 21-21s-9-21-21-21z m-125 0h-41c-12 0-21 10-21 21s9 21 21 21h41c12 0 21-9 21-21s-9-21-21-21z m-124 0h-42c-11 0-21 10-21 21s10 21 21 21h42c11 0 21-9 21-21s-10-21-21-21z m-125 0h-42c-11 0-20 10-20 21s9 21 20 21h42c11 0 21-9 21-21s-10-21-21-21z m-125 0h-41c-12 0-21 10-21 21s9 21 21 21h41c12 0 21-9 21-21s-9-21-21-21z m177-583h-333c-81 0-146 65-146 146v333c0 81 65 146 146 146h333c81 0 146-65 146-146v-333c0-81-65-146-146-146z m-333 583c-58 0-104-46-104-104v-333c0-58 46-104 104-104h333c58 0 104 46 104 104v333c0 58-46 104-104 104h-333z m648-774c-5 0-10 2-14 6l-170 170c-8 9-8 22 0 30 8 8 22 8 30 0l169-171c8-8 8-21 0-29-4-4-9-6-15-6z m19-17h-105c-11 0-20 9-20 21s9 20 20 20h84v84c0 11 9 21 21 21s20-10 20-21v-104c0-12-9-21-20-21z" horiz-adv-x="1000" />

<glyph glyph-name="maximize" unicode="&#xe85c;" d="M146 579c-12 0-21 10-21 21v104c0 12 9 21 21 21h104c12 0 21-9 21-21s-9-21-21-21h-83v-83c0-11-10-21-21-21z m708 0c-11 0-21 10-21 21v83h-83c-11 0-21 10-21 21s10 21 21 21h104c12 0 21-9 21-21v-104c0-11-9-21-21-21z m-21-583c-5 0-10 2-14 6l-667 667c-8 8-8 21 0 29s21 8 29 0l667-667c8-8 8-21 0-29-4-4-9-6-15-6z m21-21h-104c-11 0-21 9-21 21s10 21 21 21h83v83c0 12 10 21 21 21s21-9 21-21v-104c0-12-9-21-21-21z m-687 21c-6 0-11 2-15 6-8 8-8 21 0 29l667 667c8 8 21 8 29 0 8-8 8-21 0-29l-667-667c-4-4-9-6-14-6z m83-21h-104c-12 0-21 9-21 21v104c0 12 9 21 21 21s21-9 21-21v-83h83c12 0 21-10 21-21s-9-21-21-21z m604-125h-708c-81 0-146 65-146 146v708c0 81 65 146 146 146h708c81 0 146-65 146-146v-708c0-81-65-146-146-146z m-708 958c-58 0-104-46-104-104v-708c0-58 46-104 104-104h708c58 0 104 46 104 104v708c0 58-46 104-104 104h-708z" horiz-adv-x="1000" />

<glyph glyph-name="minimize" unicode="&#xe85d;" d="M667 496c-5 0-10 2-15 6-8 9-8 22 0 30l125 124c8 9 21 9 29 0 9-8 9-21 0-29l-124-125c-4-4-9-6-15-6z m83-21h-104c-12 0-21 9-21 21v104c0 12 9 21 21 21s21-9 21-21v-83h83c12 0 21-10 21-21s-9-21-21-21z m-417 21c-5 0-11 2-15 6l-124 125c-8 8-8 21 0 29s21 9 29 0l125-124c8-8 8-21 0-30-4-4-10-6-15-6z m21-21h-104c-11 0-21 9-21 21s10 21 21 21h83v83c0 12 10 21 21 21s21-9 21-21v-104c0-12-9-21-21-21z m438-437c-6 0-11 2-15 6l-125 124c-8 8-8 22 0 30 9 8 22 8 30 0l124-125c9-8 9-21 0-29-4-4-9-6-14-6z m-146 41c-12 0-21 10-21 21v104c0 12 9 21 21 21h104c12 0 21-9 21-21s-9-21-21-21h-83v-83c0-11-10-21-21-21z m-438-41c-5 0-10 2-14 6-8 8-8 21 0 29l124 125c8 8 22 8 30 0 8-8 8-22 0-30l-125-124c-4-4-9-6-15-6z m146 41c-11 0-21 10-21 21v83h-83c-11 0-21 10-21 21s10 21 21 21h104c12 0 21-9 21-21v-104c0-11-9-21-21-21z m500-229h-708c-81 0-146 65-146 146v708c0 81 65 146 146 146h708c81 0 146-65 146-146v-708c0-81-65-146-146-146z m-708 958c-58 0-104-46-104-104v-708c0-58 46-104 104-104h708c58 0 104 46 104 104v708c0 58-46 104-104 104h-708z" horiz-adv-x="1000" />

<glyph glyph-name="resize" unicode="&#xe85e;" d="M729 454c-11 0-21 10-21 21v83h-83c-11 0-21 10-21 21s10 21 21 21h104c12 0 21-9 21-21v-104c0-11-9-21-21-21z m229 146h-187c-12 0-21 9-21 21v187c0 12 9 21 21 21s21-9 21-21v-166h166c12 0 21-10 21-21s-9-21-21-21z m-666-479c-6 0-11 2-15 6-8 8-8 21 0 29l417 417c8 8 21 8 29 0 8-8 8-21 0-29l-417-417c-4-4-9-6-14-6z m83-21h-104c-12 0-21 9-21 21v104c0 12 9 21 21 21s21-9 21-21v-83h83c12 0 21-10 21-21s-9-21-21-21z m479-250h-708c-81 0-146 65-146 146v708c0 81 65 146 146 146h708c81 0 146-65 146-146v-708c0-81-65-146-146-146z m-708 958c-58 0-104-46-104-104v-708c0-58 46-104 104-104h708c58 0 104 46 104 104v708c0 58-46 104-104 104h-708z m83-937c-11 0-21 9-21 21v166h-166c-12 0-21 10-21 21s9 21 21 21h187c12 0 21-9 21-21v-187c0-12-9-21-21-21z" horiz-adv-x="1000" />

<glyph glyph-name="three-arrow-fork" unicode="&#xe85f;" d="M396 392c-5 0-9 1-13 4l-91 73-91-73c-9-7-22-5-30 4-7 8-5 22 4 29l104 83c7 6 18 6 26 0l104-83c9-7 10-21 3-29-4-6-10-8-16-8z m208 333c-4 0-9 2-13 5l-91 73-91-73c-9-8-22-6-29 3-8 9-6 22 3 29l104 83c8 7 18 7 26 0l104-83c9-7 11-20 4-29-5-5-11-8-17-8z m-104-875c-11 0-21 9-21 21v917c0 11 10 20 21 20 12 0 21-9 21-20v-917c0-12-9-21-21-21z m83 313h-62c-12 0-21 9-21 20s9 21 21 21h62c58 0 105 69 105 125v250c0 12 9 21 20 21 12 0 21-9 21-21v-250c0-79-62-166-146-166z m-104 0h-62c-84 0-146 87-146 166v125c0 12 9 21 21 21 11 0 21-9 21-21v-125c0-56 46-125 104-125h62c12 0 21-9 21-21s-9-20-21-20z m334 354c-5 0-10 1-13 4l-92 73-91-73c-9-7-22-5-29 4-7 8-6 22 3 29l104 83c8 6 19 6 26 0l105-83c9-7 10-21 3-29-4-6-10-8-16-8z" horiz-adv-x="1000" />

<glyph glyph-name="view-height" unicode="&#xe860;" d="M500-4c-11 0-21 9-21 21v666c0 12 10 21 21 21s21-9 21-21v-666c0-12-9-21-21-21z m104 604c-4 0-9 2-13 5l-91 73-91-73c-9-8-22-6-29 3-8 9-6 22 3 29l104 83c8 7 18 7 26 0l104-83c9-7 11-20 3-29-4-5-10-8-16-8z m-104-625c-5 0-9 1-13 4l-104 84c-9 7-11 20-3 29 7 9 20 11 29 3l91-72 91 73c9 7 22 5 30-4 7-9 5-22-4-29l-104-83c-4-4-8-5-13-5z m104 833h-208c-12 0-21 10-21 21s9 21 21 21h208c12 0 21-9 21-21s-9-21-21-21z m0-958h-208c-12 0-21 9-21 21s9 21 21 21h208c12 0 21-10 21-21s-9-21-21-21z" horiz-adv-x="1000" />

<glyph glyph-name="view-width" unicode="&#xe861;" d="M875 329h-750c-11 0-21 10-21 21s10 21 21 21h750c12 0 21-9 21-21s-9-21-21-21z m-83-104c-5 0-9 2-13 5-9 7-11 20-4 29l73 91-73 91c-7 9-5 22 4 29 9 8 22 6 29-3l83-104c6-8 6-18 0-26l-83-104c-4-5-10-8-16-8z m-584 0c-6 0-12 3-16 8l-83 104c-6 8-6 18 0 26l83 104c7 9 20 11 29 3 9-7 11-20 4-29l-73-91 73-91c7-9 5-22-4-29-3-3-8-5-13-5z m771 0c-11 0-21 9-21 21v208c0 12 10 21 21 21s21-9 21-21v-208c0-12-9-21-21-21z m-958 0c-12 0-21 9-21 21v208c0 12 9 21 21 21s21-9 21-21v-208c0-12-10-21-21-21z" horiz-adv-x="1000" />

<glyph glyph-name="arrow-back-2" unicode="&#xe862;" d="M604-129c-6 0-12 2-16 7l-375 459c-6 8-6 19 0 26l375 459c6 6 15 9 23 6 9-3 14-11 14-20v-916c0-9-5-17-14-20-2-1-4-1-7-1z m-348 479l327-400v800l-327-400z m515-479c-12 0-21 9-21 21v916c0 12 9 21 21 21 11 0 21-9 21-21v-916c0-12-10-21-21-21z" horiz-adv-x="1000" />

<glyph glyph-name="arrow-back-3" unicode="&#xe863;" d="M875-150h-250c-5 0-10 2-14 5l-500 459c-4 4-7 9-7 15 0 5 2 11 6 15l500 500c4 4 10 6 15 6h250c8 0 16-5 19-13s2-17-4-23l-485-484 484-444c6-6 9-15 5-23-3-8-10-13-19-13z m-242 42h189l-461 422c-4 4-7 9-7 15 0 5 2 11 6 15l465 464h-191l-479-478 478-438z" horiz-adv-x="1000" />

<glyph glyph-name="arrow-back" unicode="&#xe864;" d="M490-129c-8 0-15 4-19 11l-250 458c-3 6-3 14 0 20l250 458c6 10 19 14 29 9 10-6 13-18 8-29l-245-448 245-448c5-11 2-23-8-29-4-1-7-2-10-2z m270 437h-375c-11 0-20 10-20 21 0 12 9 21 20 21h375c12 0 21-9 21-21 0-11-9-21-21-21z" horiz-adv-x="1000" />

</font>
</defs>
</svg>
